<?xml version="1.0" encoding="UTF-8" standalone="no"?>
<!-- Created with Inkscape (http://www.inkscape.org/) -->

<svg
   xmlns:dc="http://purl.org/dc/elements/1.1/"
   xmlns:cc="http://creativecommons.org/ns#"
   xmlns:rdf="http://www.w3.org/1999/02/22-rdf-syntax-ns#"
   xmlns:svg="http://www.w3.org/2000/svg"
   xmlns="http://www.w3.org/2000/svg"
   xmlns:sodipodi="http://sodipodi.sourceforge.net/DTD/sodipodi-0.dtd"
   xmlns:inkscape="http://www.inkscape.org/namespaces/inkscape"
   width="68.453079mm"
   height="56.471043mm"
   viewBox="0 0 68.453079 56.471043"
   version="1.1"
   id="svg3041"
   inkscape:version="0.92.3 (2405546, 2018-03-11)"
   sodipodi:docname="amperes_circuit_law.svg">
  <defs
     id="defs3035">
    <clipPath
       clipPathUnits="userSpaceOnUse"
       id="clipPath2423">
      <path
         d="m 347.5998,502.4346 h 198.0001 v -161 H 347.5998 Z"
         id="path2421"
         inkscape:connector-curvature="0" />
    </clipPath>
    <clipPath
       clipPathUnits="userSpaceOnUse"
       id="clipPath2429">
      <path
         d="m 347.5999,341.4346 h 198 v 161 h -198 z"
         id="path2427"
         inkscape:connector-curvature="0" />
    </clipPath>
    <clipPath
       clipPathUnits="userSpaceOnUse"
       id="clipPath2399">
      <path
         d="m 347.5998,502.4346 h 198.0001 v -161 H 347.5998 Z"
         id="path2397"
         inkscape:connector-curvature="0" />
    </clipPath>
    <clipPath
       clipPathUnits="userSpaceOnUse"
       id="clipPath2405">
      <path
         d="M 347.6476,502.4346 H 544.8047 V 342.2238 H 347.6476 Z"
         id="path2403"
         inkscape:connector-curvature="0" />
    </clipPath>
    <clipPath
       clipPathUnits="userSpaceOnUse"
       id="clipPath2411">
      <path
         d="m 347.5999,341.4346 h 198 v 161 h -198 z"
         id="path2409"
         inkscape:connector-curvature="0" />
    </clipPath>
    <clipPath
       clipPathUnits="userSpaceOnUse"
       id="clipPath2287">
      <path
         d="m 347.5998,502.4346 h 198.0001 v -161 H 347.5998 Z"
         id="path2285"
         inkscape:connector-curvature="0" />
    </clipPath>
    <clipPath
       clipPathUnits="userSpaceOnUse"
       id="clipPath2293">
      <path
         d="M 347.6476,502.4346 H 544.8047 V 342.2238 H 347.6476 Z"
         id="path2291"
         inkscape:connector-curvature="0" />
    </clipPath>
    <clipPath
       clipPathUnits="userSpaceOnUse"
       id="clipPath2299">
      <path
         d="m 347.5999,341.4346 h 198 v 161 h -198 z"
         id="path2297"
         inkscape:connector-curvature="0" />
    </clipPath>
    <clipPath
       clipPathUnits="userSpaceOnUse"
       id="clipPath2257">
      <path
         d="m 347.5998,502.4346 h 198.0001 v -161 H 347.5998 Z"
         id="path2255"
         inkscape:connector-curvature="0" />
    </clipPath>
    <clipPath
       clipPathUnits="userSpaceOnUse"
       id="clipPath2263">
      <path
         d="m 347.5999,341.4346 h 198 v 161 h -198 z"
         id="path2261"
         inkscape:connector-curvature="0" />
    </clipPath>
  </defs>
  <sodipodi:namedview
     id="base"
     pagecolor="#ffffff"
     bordercolor="#666666"
     borderopacity="1.0"
     inkscape:pageopacity="0.0"
     inkscape:pageshadow="2"
     inkscape:zoom="1.979899"
     inkscape:cx="24.609536"
     inkscape:cy="76.223022"
     inkscape:document-units="mm"
     inkscape:current-layer="layer1"
     showgrid="false"
     fit-margin-top="0"
     fit-margin-left="0"
     fit-margin-right="0"
     fit-margin-bottom="0"
     inkscape:window-width="1920"
     inkscape:window-height="1017"
     inkscape:window-x="1912"
     inkscape:window-y="-8"
     inkscape:window-maximized="1" />
  <metadata
     id="metadata3038">
    <rdf:RDF>
      <cc:Work
         rdf:about="">
        <dc:format>image/svg+xml</dc:format>
        <dc:type
           rdf:resource="http://purl.org/dc/dcmitype/StillImage" />
        <dc:title></dc:title>
      </cc:Work>
    </rdf:RDF>
  </metadata>
  <g
     inkscape:label="Ebene 1"
     inkscape:groupmode="layer"
     id="layer1"
     transform="translate(-101.54638,-90.495702)">
    <g
       transform="matrix(0.35277777,0,0,-0.35277777,-22.156261,267.74346)"
       id="g2251">
      <g
         id="g2253"
         clip-path="url(#clipPath2257)">
        <g
           id="g2259"
           clip-path="url(#clipPath2263)">
          <path
             d="m 490.4938,432.3246 c 6.7002,-11.5178 -3.3373,-19.2671 -30.5349,-34.8518 -27.1976,-15.5854 -55.8964,-7.7295 -62.5966,3.7882 -6.7002,11.5171 -18.0371,38.9652 9.1604,54.5506 27.1976,15.5847 77.2709,-11.97 83.9711,-23.487"
             style="fill:#ededed;fill-opacity:1;fill-rule:evenodd;stroke:none"
             id="path2265"
             inkscape:connector-curvature="0" />
          <g
             id="g2267"
             transform="matrix(0.7951807,0,0,0.7892156,347.5999,341.4346)">
            <path
               d="M 179.7,115.165 C 188.126,100.571 175.503,90.75201 141.3,71.00503 107.097,51.257 71.00601,61.21102 62.58001,75.805 54.15401,90.398 39.89702,125.177 74.09998,144.925 108.303,164.672 171.274,129.758 179.7,115.165 Z"
               style="fill:none;stroke:#0038e3;stroke-width:1;stroke-linecap:square;stroke-linejoin:bevel;stroke-miterlimit:10;stroke-dasharray:none;stroke-opacity:1"
               id="path2269"
               inkscape:connector-curvature="0" />
          </g>
          <path
             d="m 414.0301,444.1013 2.7831,-6.9057 -13.4187,-9.4706 -2.5843,6.9057 13.2199,9.4706"
             style="fill:#808080;fill-opacity:1;fill-rule:evenodd;stroke:none"
             id="path2271"
             inkscape:connector-curvature="0" />
          <g
             id="g2273"
             transform="matrix(0.7951807,0,0,0.7892156,347.5999,341.4346)">
            <path
               d="m 83.54102,130.087 3.49997,-8.75 -16.875,-12 -3.24997,8.75 z"
               style="fill:none;stroke:#000000;stroke-width:1;stroke-linecap:square;stroke-linejoin:bevel;stroke-miterlimit:10;stroke-dasharray:none;stroke-opacity:1"
               id="path2275"
               inkscape:connector-curvature="0" />
          </g>
          <path
             d="m 401.4256,493.2805 0.7913,0.082 6.1578,-58.4067 -0.7904,-0.0821 -6.1587,58.4068"
             style="fill:#000000;fill-opacity:1;fill-rule:nonzero;stroke:none"
             id="path2277"
             inkscape:connector-curvature="0" />
          <path
             d="m 404.2732,492.0635 -4.5898,-0.4767 1.3693,8.6616 3.2205,-8.1849"
             style="fill:#000000;fill-opacity:1;fill-rule:evenodd;stroke:none"
             id="path2279"
             inkscape:connector-curvature="0" />
        </g>
      </g>
    </g>
    <g
       transform="matrix(0.35277777,0,0,-0.35277777,-22.156261,267.74346)"
       id="g2281">
      <g
         id="g2283"
         clip-path="url(#clipPath2287)">
        <g
           id="g2289"
           clip-path="url(#clipPath2293)">
          <g
             id="g2295"
             clip-path="url(#clipPath2299)">
            <g
               id="g2301"
               transform="matrix(0.7951807,0,0,0.7892156,347.5999,341.4346)">
              <path
                 d="m 71.27102,190.859 -5.772,-0.604 1.72199,10.975 z"
                 style="fill:none;stroke:#000000;stroke-width:0.063;stroke-linecap:butt;stroke-linejoin:miter;stroke-miterlimit:14.30000019;stroke-dasharray:none;stroke-opacity:1"
                 id="path2303"
                 inkscape:connector-curvature="0" />
            </g>
            <g
               id="g2305"
               transform="matrix(0.7951807,0,0,0.7892156,347.5999,341.4346)">
              <path
                 d="M 239.785,24.20501 C 220.959,-8.402986 184.5,-1.954979 124.98,17.245 63.59101,37.04701 -11.92602,103.677 6.900009,136.285 25.726,168.892 123.89,185.123 172.26,142.449 223.86,96.92501 258.61,56.81201 239.785,24.20501 Z m -7.896,7.42601 C 215.887,3.915015 184.897,9.395 134.305,25.71501 82.12402,42.54803 17.935,99.18301 33.937,126.899 c 16.00201,27.717 99.441,41.513 140.556,5.24 43.86,-38.69599 73.398,-72.79097 57.396,-100.50798 z m -10.776,9.347 C 207.9351,18.15301 182.413,22.66602 140.75,36.10601 97.77702,49.968 44.916,96.60902 58.09399,119.434 c 13.17802,22.825 81.89201,34.187 115.75101,4.315 36.12,-31.86699 60.446,-59.94597 47.268,-82.77098 z m -11.736,8.38699 C 199.023,31.43102 178.97,34.97702 146.234,45.53701 112.47,56.429 70.93601,93.075 81.28999,111.009 c 10.355,17.934 64.34501,26.861 90.94801,3.39 28.38,-25.03796 47.493,-47.09997 37.139,-65.03399 z m -12.696,7.42701 c -7.531,-13.043 -22.114,-10.46402 -45.922,-2.784 -24.555,7.921 -54.76201,34.573 -47.232,47.61598 7.531,13.043 46.796,19.535 66.144,2.466 20.64,-18.21 34.54,-34.25499 27.01,-47.29798 z m -12.696,7.427 c -4.707,-8.152 -13.821,-6.53999 -28.701,-1.73999 -15.347,4.95097 -34.226,21.60801 -29.52,29.76001 4.706,8.15196 29.247,12.20896 41.34,1.54097 12.9,-11.38099 21.587,-21.40898 16.881,-29.56099 z m -9.816,5.50698 c -1.883,-3.26097 -5.529,-2.61598 -11.48,-0.69599 -6.139,1.98001 -13.691,8.64301 -11.808,11.90402 1.882,3.26 11.698,4.88299 16.535,0.61598 5.16,-4.55198 8.635,-8.563 6.753,-11.82401 z"
                 style="fill:none;stroke:#0e7000;stroke-width:0.25;stroke-linecap:square;stroke-linejoin:bevel;stroke-miterlimit:10;stroke-dasharray:none;stroke-opacity:1"
                 id="path2307"
                 inkscape:connector-curvature="0" />
            </g>
          </g>
        </g>
      </g>
    </g>
    <g
       transform="matrix(0.35277777,0,0,-0.35277777,-22.156261,267.74346)"
       id="g2309">
      <path
         d="m 404.79,375.4569 0.1615,0.2486 4.0355,-2.5918 -0.1622,-0.2486 -4.0348,2.5918"
         style="fill:#0e7000;fill-opacity:1;fill-rule:nonzero;stroke:none"
         id="path2323"
         inkscape:connector-curvature="0" />
      <path
         d="m 398.8906,376.0535 9.8905,-2.9832 -6.7949,7.7319 2.6233,-5.0533 -5.7189,0.3046"
         style="fill:#0e7000;fill-opacity:1;fill-rule:evenodd;stroke:none"
         id="path2325"
         inkscape:connector-curvature="0" />
      <path
         d="m 409.3703,385.3355 0.1598,0.2502 4.0634,-2.5469 -0.1591,-0.2501 -4.0641,2.5468"
         style="fill:#0e7000;fill-opacity:1;fill-rule:nonzero;stroke:none"
         id="path2327"
         inkscape:connector-curvature="0" />
      <path
         d="m 403.4645,385.8682 9.923,-2.8759 -6.8799,7.6578 2.6798,-5.0242 -5.7229,0.2423"
         style="fill:#0e7000;fill-opacity:1;fill-rule:evenodd;stroke:none"
         id="path2329"
         inkscape:connector-curvature="0" />
      <path
         d="m 432.0703,395.0042 0.1781,0.2367 3.8455,-2.8625 -0.1789,-0.2367 -3.8447,2.8625"
         style="fill:#0e7000;fill-opacity:1;fill-rule:nonzero;stroke:none"
         id="path2331"
         inkscape:connector-curvature="0" />
      <path
         d="m 426.2257,396.0041 9.6591,-3.6549 -6.2398,8.1802 2.2655,-5.2214 -5.6848,0.6961"
         style="fill:#0e7000;fill-opacity:1;fill-rule:evenodd;stroke:none"
         id="path2333"
         inkscape:connector-curvature="0" />
      <path
         d="m 439.1379,401.2761 0.194,0.2249 3.6491,-3.1048 -0.194,-0.2241 -3.6491,3.104"
         style="fill:#0e7000;fill-opacity:1;fill-rule:nonzero;stroke:none"
         id="path2335"
         inkscape:connector-curvature="0" />
      <path
         d="m 433.372,402.6517 9.3983,-4.2713 -5.6903,8.5654 1.9179,-5.3564 -5.6259,1.0623"
         style="fill:#0e7000;fill-opacity:1;fill-rule:evenodd;stroke:none"
         id="path2337"
         inkscape:connector-curvature="0" />
      <path
         d="m 448.4041,407.4532 0.2442,0.1697 2.7561,-3.9082 -0.2442,-0.1697 -2.7561,3.9082"
         style="fill:#0e7000;fill-opacity:1;fill-rule:nonzero;stroke:none"
         id="path2339"
         inkscape:connector-curvature="0" />
      <path
         d="m 443.1639,410.2092 8.0329,-6.4582 -3.3644,9.7011 0.5153,-5.6611 -5.1838,2.4182"
         style="fill:#0e7000;fill-opacity:1;fill-rule:evenodd;stroke:none"
         id="path2341"
         inkscape:connector-curvature="0" />
      <path
         d="m 471.6664,398.6764 0.1534,0.2541 4.1214,-2.4545 -0.1534,-0.2533 -4.1214,2.4537"
         style="fill:#0e7000;fill-opacity:1;fill-rule:nonzero;stroke:none"
         id="path2343"
         inkscape:connector-curvature="0" />
      <path
         d="m 465.7494,399.0742 9.9867,-2.6487 -7.0549,7.4992 2.7951,-4.9626 -5.7269,0.1121"
         style="fill:#0e7000;fill-opacity:1;fill-rule:evenodd;stroke:none"
         id="path2345"
         inkscape:connector-curvature="0" />
      <g
         id="g2365"
         transform="matrix(0.7951807,0,0,0.7892156,347.5999,341.4346)">
        <path
           d="m 172.98,150.685 -51.84,-19.2"
           style="fill:none;stroke:#000000;stroke-width:0.25;stroke-linecap:square;stroke-linejoin:bevel;stroke-miterlimit:10;stroke-dasharray:none;stroke-opacity:1"
           id="path2367"
           inkscape:connector-curvature="0" />
      </g>
      <g
         id="g2369"
         transform="matrix(0.7951807,0,0,0.7892156,347.5999,341.4346)">
        <path
           d="m 37.27,181.545 h 7.08698 m -1.75196,0.96 1.91999,-0.96 -1.91999,-0.96"
           style="fill:none;stroke:#e30000;stroke-width:0.75;stroke-linecap:butt;stroke-linejoin:miter;stroke-miterlimit:14.30000019;stroke-dasharray:none;stroke-opacity:1"
           id="path2371"
           inkscape:connector-curvature="0" />
      </g>
      <g
         id="g2373"
         transform="matrix(0.7951807,0,0,0.7892156,347.5999,341.4346)">
        <text
           transform="matrix(1,0,0,-1,37.685,170.7446)"
           style="font-variant:normal;font-weight:bold;font-size:12px;font-family:'Times New Roman';-inkscape-font-specification:Times-Bold;writing-mode:lr-tb;fill:#e30000;fill-opacity:1;fill-rule:nonzero;stroke:none"
           id="text2377">
          <tspan
             x="0"
             y="0"
             id="tspan2375">j</tspan>
        </text>
      </g>
      <path
         d="m 415.6594,389.2492 0.093,1.5753 9.0881,-0.5304 -0.093,-1.5761 -9.0881,0.5312"
         style="fill:#002aaa;fill-opacity:1;fill-rule:nonzero;stroke:none"
         id="path2379"
         inkscape:connector-curvature="0" />
      <path
         d="m 424.5543,385.4641 11.4291,3.3889 -10.9496,4.6951 -0.4795,-8.084"
         style="fill:#002aaa;fill-opacity:1;fill-rule:evenodd;stroke:none"
         id="path2381"
         inkscape:connector-curvature="0" />
      <g
         id="g2383"
         transform="matrix(0.7951807,0,0,0.7892156,347.5999,341.4346)">
        <path
           d="m 141.93,33.61501 h 8.504 m -0.874,0.96001 1.92,-0.96001 -1.92,-0.95998"
           style="fill:none;stroke:#0e7000;stroke-width:0.75;stroke-linecap:butt;stroke-linejoin:miter;stroke-miterlimit:14.30000019;stroke-dasharray:none;stroke-opacity:1"
           id="path2385"
           inkscape:connector-curvature="0" />
      </g>
      <g
         id="g2387"
         transform="matrix(0.7951807,0,0,0.7892156,347.5999,341.4346)">
        <text
           transform="matrix(1,0,0,-1,142.26,23.0646)"
           style="font-variant:normal;font-weight:bold;font-size:12px;font-family:'Times New Roman';-inkscape-font-specification:Times-Bold;writing-mode:lr-tb;fill:#0e7000;fill-opacity:1;fill-rule:nonzero;stroke:none"
           id="text2391">
          <tspan
             x="0"
             y="0"
             id="tspan2389">B</tspan>
        </text>
      </g>
    </g>
    <g
       transform="matrix(0.35277777,0,0,-0.35277777,-22.156261,267.74346)"
       id="g2393">
      <g
         id="g2395"
         clip-path="url(#clipPath2399)">
        <g
           id="g2401"
           clip-path="url(#clipPath2405)">
          <g
             id="g2407"
             clip-path="url(#clipPath2411)">
            <g
               id="g2413"
               transform="matrix(0.7951807,0,0,0.7892156,347.5999,341.4346)">
              <path
                 d="M 75.33998,202.705 H 86.86 m -1.80002,0.96 1.92002,-0.96 -1.92002,-0.96"
                 style="fill:none;stroke:#000000;stroke-width:0.75;stroke-linecap:butt;stroke-linejoin:miter;stroke-miterlimit:14.30000019;stroke-dasharray:none;stroke-opacity:1"
                 id="path2415"
                 inkscape:connector-curvature="0" />
            </g>
          </g>
        </g>
      </g>
    </g>
    <g
       transform="matrix(0.35277777,0,0,-0.35277777,-22.156261,267.74346)"
       id="g2417">
      <g
         id="g2419"
         clip-path="url(#clipPath2423)">
        <g
           id="g2425"
           clip-path="url(#clipPath2429)">
          <g
             id="g2431"
             transform="matrix(0.7951807,0,0,0.7892156,347.5999,341.4346)">
            <text
               transform="matrix(1,0,0,-1,74.18,191.9046)"
               style="font-variant:normal;font-weight:bold;font-size:12px;font-family:'Times New Roman';-inkscape-font-specification:Times-Bold;writing-mode:lr-tb;fill:#000000;fill-opacity:1;fill-rule:nonzero;stroke:none"
               id="text2435">
              <tspan
                 x="0 6.6732001"
                 y="0"
                 sodipodi:role="line"
                 id="tspan2433">dA</tspan>
            </text>
          </g>
        </g>
      </g>
    </g>
    <path
       inkscape:connector-curvature="0"
       id="path2489"
       style="fill:#0038e3;fill-opacity:1;fill-rule:nonzero;stroke:none;stroke-width:0.35277775"
       d="m 109.63894,140.54633 -0.10968,-0.0869 8.13149,-10.0929 0.1094,0.0869 -8.13121,10.09294" />
    <path
       inkscape:connector-curvature="0"
       id="path2491"
       style="fill:#0038e3;fill-opacity:1;fill-rule:evenodd;stroke:none;stroke-width:0.35277775"
       d="m 117.08258,130.05581 1.12043,0.889 1.31508,-2.75357 -2.43551,1.86457" />
    <g
       transform="matrix(0.28052207,0,0,-0.27841771,100.46926,147.29292)"
       id="g2493">
      <path
         inkscape:connector-curvature="0"
         id="path2495"
         style="fill:none;stroke:#0038e3;stroke-width:0.063;stroke-linecap:butt;stroke-linejoin:miter;stroke-miterlimit:14.30000019;stroke-dasharray:none;stroke-opacity:1"
         d="m 59.223,61.91103 3.99401,-3.19303 4.68801,9.89002 z" />
    </g>
    <path
       inkscape:connector-curvature="0"
       id="path2497"
       style="fill:#0e7000;fill-opacity:1;fill-rule:nonzero;stroke:none;stroke-width:0.35277775"
       d="m 126.90956,130.66414 0.24349,-0.34078 10.36588,7.28733 -0.24324,0.34078 -10.36613,-7.28733" />
    <path
       inkscape:connector-curvature="0"
       id="path2499"
       style="fill:#0e7000;fill-opacity:1;fill-rule:evenodd;stroke:none;stroke-width:0.35277775"
       d="m 136.47679,138.70959 3.65266,0.99229 -2.15526,-3.09043 -1.4974,2.09814" />
    <g
       transform="matrix(0.28052207,0,0,-0.27841771,100.46926,147.29292)"
       id="g2501">
      <path
         inkscape:connector-curvature="0"
         id="path2503"
         style="fill:none;stroke:#002aaa;stroke-width:0.75;stroke-linecap:butt;stroke-linejoin:miter;stroke-miterlimit:14.30000019;stroke-dasharray:none;stroke-opacity:1"
         d="m 91.18,52.44501 h 10.56 m -1.8,0.96501 1.92,-0.96002 -1.92,-0.95998" />
    </g>
    <g
       transform="matrix(0.28052207,0,0,-0.27841771,100.46926,147.29292)"
       id="g2505">
      <text
         id="text2509"
         style="font-variant:normal;font-weight:bold;font-size:12px;font-family:'Times New Roman';-inkscape-font-specification:Times-Bold;writing-mode:lr-tb;fill:#002aaa;fill-opacity:1;fill-rule:nonzero;stroke:none"
         transform="matrix(1,0,0,-1,90.00999,42.6496)">
        <tspan
           id="tspan2507"
           y="0"
           x="0">d</tspan>
      </text>
    </g>
    <g
       transform="matrix(0.28052207,0,0,-0.27841771,100.46926,147.29292)"
       id="g2511">
      <text
         id="text2515"
         style="font-style:italic;font-variant:normal;font-weight:bold;font-size:12px;font-family:'Times New Roman';-inkscape-font-specification:Times-BoldItalic;writing-mode:lr-tb;fill:#002aaa;fill-opacity:1;fill-rule:nonzero;stroke:none"
         transform="matrix(1,0,0,-1,96.68439,42.6496)">
        <tspan
           id="tspan2513"
           y="0"
           x="0">l</tspan>
      </text>
    </g>
    <path
       inkscape:connector-curvature="0"
       id="path2517"
       style="fill:#e30000;fill-opacity:1;fill-rule:nonzero;stroke:none;stroke-width:0.35277775"
       d="m 114.67152,98.33347 0.12849,-0.0557 6.83997,15.51707 -0.12848,0.056 -6.83998,-15.517317" />
    <path
       inkscape:connector-curvature="0"
       id="path2519"
       style="fill:#e30000;fill-opacity:1;fill-rule:evenodd;stroke:none;stroke-width:0.35277775"
       d="m 114.52872,100.51653 -0.52148,-3.863587 2.50476,3.002174 -1.74819,-1.285734 -0.23509,2.147147" />
    <path
       inkscape:connector-curvature="0"
       id="path2521"
       style="fill:#e30000;fill-opacity:1;fill-rule:nonzero;stroke:none;stroke-width:0.35277775"
       d="m 128.57026,92.800751 0.13998,-0.007 0.72066,14.304819 -0.13998,0.007 -0.72066,-14.304819" />
    <path
       inkscape:connector-curvature="0"
       id="path2523"
       style="fill:#e30000;fill-opacity:1;fill-rule:evenodd;stroke:none;stroke-width:0.35277775"
       d="m 127.65689,94.791405 0.89259,-3.795924 1.26965,3.68875 -1.17538,-1.817511 -0.98686,1.924685" />
    <path
       inkscape:connector-curvature="0"
       id="path2525"
       style="fill:#e30000;fill-opacity:1;fill-rule:nonzero;stroke:none;stroke-width:0.35277775"
       d="m 125.63826,102.42231 0.1397,-0.01 0.96103,14.30651 -0.13998,0.01 -0.96075,-14.30648" />
    <path
       inkscape:connector-curvature="0"
       id="path2527"
       style="fill:#e30000;fill-opacity:1;fill-rule:evenodd;stroke:none;stroke-width:0.35277775"
       d="m 124.75825,104.42774 0.82892,-3.81014 1.33139,3.6673 -1.20569,-1.798 -0.95462,1.94084" />
    <path
       inkscape:connector-curvature="0"
       id="path2529"
       style="fill:#e30000;fill-opacity:1;fill-rule:nonzero;stroke:none;stroke-width:0.35277775"
       d="m 113.58253,109.0812 0.13745,-0.0278 2.8835,14.0704 -0.13748,0.0276 -2.88347,-14.07012" />
    <path
       inkscape:connector-curvature="0"
       id="path2531"
       style="fill:#e30000;fill-opacity:1;fill-rule:evenodd;stroke:none;stroke-width:0.35277775"
       d="m 112.9808,111.18548 0.30829,-3.88588 1.81332,3.45768 -1.43711,-1.62179 -0.6845,2.04999" />
    <path
       inkscape:connector-curvature="0"
       id="path2533"
       style="fill:#e30000;fill-opacity:1;fill-rule:nonzero;stroke:none;stroke-width:0.35277775"
       d="m 106.58406,106.58575 0.13324,-0.0434 4.30379,13.05221 -0.13325,0.0434 -4.30378,-13.05222" />
    <path
       inkscape:connector-curvature="0"
       id="path2535"
       style="fill:#e30000;fill-opacity:1;fill-rule:evenodd;stroke:none;stroke-width:0.35277775"
       d="m 106.23061,108.74486 -0.14531,-3.89534 2.20292,3.2269 -1.61579,-1.44639 -0.44182,2.11483" />
    <path
       inkscape:connector-curvature="0"
       id="path2537"
       style="fill:#e30000;fill-opacity:1;fill-rule:nonzero;stroke:none;stroke-width:0.35277775"
       d="m 132.62269,109.69736 -0.13804,-0.0256 2.9096,-15.401537 0.13801,0.02561 -2.90957,15.401537" />
    <path
       inkscape:connector-curvature="0"
       id="path2539"
       style="fill:#e30000;fill-opacity:1;fill-rule:evenodd;stroke:none;stroke-width:0.35277775"
       d="m 136.16652,96.390935 -0.36833,-3.880873 -1.75973,3.484668 1.41189,-1.643203 0.71617,2.039408" />
    <path
       inkscape:connector-curvature="0"
       id="path2541"
       style="fill:#e30000;fill-opacity:1;fill-rule:nonzero;stroke:none;stroke-width:0.35277775"
       d="m 132.35338,122.52683 -0.13801,-0.0256 2.90957,-15.4015 0.13801,0.0256 -2.90957,15.4015" />
    <path
       inkscape:connector-curvature="0"
       id="path2543"
       style="fill:#e30000;fill-opacity:1;fill-rule:evenodd;stroke:none;stroke-width:0.35277775"
       d="m 135.89721,109.2204 -0.36834,-3.88083 -1.75969,3.48466 1.41185,-1.64323 0.71618,2.0394" />
    <path
       inkscape:connector-curvature="0"
       id="path2545"
       style="fill:#e30000;fill-opacity:1;fill-rule:nonzero;stroke:none;stroke-width:0.35277775"
       d="m 146.3419,126.27714 -0.1313,-0.0487 5.84972,-15.48225 0.13131,0.049 -5.84973,15.482" />
    <path
       inkscape:connector-curvature="0"
       id="path2547"
       style="fill:#e30000;fill-opacity:1;fill-rule:evenodd;stroke:none;stroke-width:0.35277775"
       d="m 152.45223,112.96708 0.31192,-3.8856 -2.33899,3.13108 1.67612,-1.37675 0.35095,2.13127" />
    <path
       inkscape:connector-curvature="0"
       id="path2549"
       style="fill:#e30000;fill-opacity:1;fill-rule:nonzero;stroke:none;stroke-width:0.35277775"
       d="m 155.46615,126.01848 -0.10771,-0.0894 9.65334,-11.49695 0.10771,0.0891 -9.65334,11.49727" />
    <path
       inkscape:connector-curvature="0"
       id="path2551"
       style="fill:#e30000;fill-opacity:1;fill-rule:evenodd;stroke:none;stroke-width:0.35277775"
       d="m 164.64401,116.65696 1.58521,-3.56627 -3.24845,2.19061 2.03997,-0.75117 -0.37673,2.12683" />
    <path
       inkscape:connector-curvature="0"
       id="path2553"
       style="fill:#e30000;fill-opacity:1;fill-rule:nonzero;stroke:none;stroke-width:0.35277775"
       d="m 141.22518,114.78431 -0.13131,-0.0493 5.57735,-14.68152 0.1313,0.0493 -5.57734,14.68151" />
    <path
       inkscape:connector-curvature="0"
       id="path2555"
       style="fill:#e30000;fill-opacity:1;fill-rule:evenodd;stroke:none;stroke-width:0.35277775"
       d="m 147.0592,102.2753 0.31895,-3.885068 -2.34488,3.126918 1.67891,-1.37372 0.34702,2.13187" />
    <path
       inkscape:connector-curvature="0"
       id="path2557"
       style="fill:#e30000;fill-opacity:1;fill-rule:nonzero;stroke:none;stroke-width:0.35277775"
       d="m 140.68405,121.73445 -0.12989,-0.0526 4.72567,-11.49113 0.12989,0.0526 -4.72567,11.49113" />
    <path
       inkscape:connector-curvature="0"
       id="path2559"
       style="fill:#e30000;fill-opacity:1;fill-rule:evenodd;stroke:none;stroke-width:0.35277775"
       d="m 145.60721,112.42193 0.42442,-3.87501 -2.42876,3.06316 1.71541,-1.32863 0.28893,2.14048" />
    <path
       inkscape:connector-curvature="0"
       id="path2561"
       style="fill:#e30000;fill-opacity:1;fill-rule:nonzero;stroke:none;stroke-width:0.35277775"
       d="m 157.31788,132.43043 -0.0718,-0.11942 11.15606,-6.5963 0.0718,0.11944 -11.15607,6.59628" />
    <path
       inkscape:connector-curvature="0"
       id="path2563"
       style="fill:#e30000;fill-opacity:1;fill-rule:evenodd;stroke:none;stroke-width:0.35277775"
       d="m 167.31006,127.69178 2.6894,-2.84071 -3.79716,0.9948 2.17544,-0.0359 -1.06768,1.88182" />
    <path
       inkscape:connector-curvature="0"
       id="path2565"
       style="fill:#e30000;fill-opacity:1;fill-rule:nonzero;stroke:none;stroke-width:0.35277775"
       d="m 148.98946,136.17545 -0.0945,-0.10305 7.86501,-7.11718 0.0945,0.10276 -7.86501,7.11747" />
    <path
       inkscape:connector-curvature="0"
       id="path2567"
       style="fill:#e30000;fill-opacity:1;fill-rule:evenodd;stroke:none;stroke-width:0.35277775"
       d="m 156.08975,131.10963 2.06044,-3.31847 -3.51914,1.73065 2.12439,-0.46831 -0.66569,2.05613" />
    <path
       inkscape:connector-curvature="0"
       id="path2569"
       style="fill:#e30000;fill-opacity:1;fill-rule:nonzero;stroke:none;stroke-width:0.35277775"
       d="m 148.47666,126.81837 -0.11807,-0.0752 10.09876,-15.6457 0.11811,0.0752 -10.0988,15.6457" />
    <path
       inkscape:connector-curvature="0"
       id="path2571"
       style="fill:#e30000;fill-opacity:1;fill-rule:evenodd;stroke:none;stroke-width:0.35277775"
       d="m 158.3718,113.35073 1.1249,-3.73469 -2.94802,2.57567 1.92973,-0.99815 -0.10661,2.15717" />
    <path
       inkscape:connector-curvature="0"
       id="path2573"
       style="fill:#e30000;fill-opacity:1;fill-rule:nonzero;stroke:none;stroke-width:0.35277775"
       d="m 124.47324,116.20064 0.13886,-0.0198 1.63798,11.38005 -0.13889,0.0195 -1.63795,-11.37977" />
    <path
       inkscape:connector-curvature="0"
       id="path2575"
       style="fill:#e30000;fill-opacity:1;fill-rule:evenodd;stroke:none;stroke-width:0.35277775"
       d="m 123.74779,118.26622 0.53777,-3.86139 1.60543,3.55734 -1.33837,-1.70251 -0.80483,2.00656" />
    <path
       inkscape:connector-curvature="0"
       id="path2577"
       style="fill:#e30000;fill-opacity:1;fill-rule:nonzero;stroke:none;stroke-width:0.35277775"
       d="m 140.15358,135.62945 -0.13409,-0.0406 4.33744,-14.11104 0.13437,0.0406 -4.33772,14.11104" />
    <path
       inkscape:connector-curvature="0"
       id="path2579"
       style="fill:#e30000;fill-opacity:1;fill-rule:evenodd;stroke:none;stroke-width:0.35277775"
       d="m 144.88825,123.67001 0.0662,-3.89728 -2.13703,3.27028 1.58637,-1.47838 0.48448,2.10538" />
    <path
       inkscape:connector-curvature="0"
       id="path2581"
       style="fill:#e30000;fill-opacity:1;fill-rule:nonzero;stroke:none;stroke-width:0.35277775"
       d="m 154.35278,139.91348 -0.0682,-0.12167 10.59113,-5.83982 0.0682,0.12168 -10.59109,5.83981" />
    <path
       inkscape:connector-curvature="0"
       id="path2583"
       style="fill:#e30000;fill-opacity:1;fill-rule:evenodd;stroke:none;stroke-width:0.35277775"
       d="m 163.72418,135.89562 2.77435,-2.75882 -3.82577,0.88064 2.17576,0.0292 -1.12434,1.84897" />
    <text
       xml:space="preserve"
       style="font-style:normal;font-weight:normal;font-size:4.23333311px;line-height:1.25;font-family:sans-serif;letter-spacing:0px;word-spacing:0px;fill:#000000;fill-opacity:1;stroke:none;stroke-width:0.26458332"
       x="149.18092"
       y="105.0753"
       id="text2633"><tspan
         sodipodi:role="line"
         id="tspan2631"
         x="149.18092"
         y="105.0753"
         style="font-style:normal;font-variant:normal;font-weight:normal;font-stretch:normal;font-size:3.52777767px;font-family:'Times New Roman';-inkscape-font-specification:'Times New Roman, Normal';font-variant-ligatures:normal;font-variant-caps:normal;font-variant-numeric:normal;font-feature-settings:normal;text-align:start;writing-mode:lr-tb;text-anchor:start;stroke-width:0.26458332">Area A</tspan></text>
    <text
       xml:space="preserve"
       style="font-style:normal;font-weight:normal;font-size:4.23333311px;line-height:1.25;font-family:sans-serif;letter-spacing:0px;word-spacing:0px;fill:#000000;fill-opacity:1;stroke:none;stroke-width:0.26458332"
       x="102.71518"
       y="143.213"
       id="text2633-5"><tspan
         sodipodi:role="line"
         id="tspan2631-1"
         x="102.71518"
         y="143.213"
         style="font-style:normal;font-variant:normal;font-weight:normal;font-stretch:normal;font-size:3.52777767px;font-family:'Times New Roman';-inkscape-font-specification:'Times New Roman, Normal';font-variant-ligatures:normal;font-variant-caps:normal;font-variant-numeric:normal;font-feature-settings:normal;text-align:start;writing-mode:lr-tb;text-anchor:start;stroke-width:0.26458332">Curve Γ</tspan></text>
  </g>
</svg>
