<?xml version="1.0" encoding="UTF-8" standalone="no"?>
<!-- Created with Inkscape (http://www.inkscape.org/) -->

<svg
   xmlns:dc="http://purl.org/dc/elements/1.1/"
   xmlns:cc="http://creativecommons.org/ns#"
   xmlns:rdf="http://www.w3.org/1999/02/22-rdf-syntax-ns#"
   xmlns:svg="http://www.w3.org/2000/svg"
   xmlns="http://www.w3.org/2000/svg"
   xmlns:sodipodi="http://sodipodi.sourceforge.net/DTD/sodipodi-0.dtd"
   xmlns:inkscape="http://www.inkscape.org/namespaces/inkscape"
   version="1.1"
   id="svg5262"
   xml:space="preserve"
   width="363.0553"
   height="248.33333"
   viewBox="0 0 363.0553 248.33332"
   sodipodi:docname="experimental_arrangement_led.svg"
   inkscape:version="0.92.3 (2405546, 2018-03-11)"><metadata
     id="metadata5268"><rdf:RDF><cc:Work
         rdf:about=""><dc:format>image/svg+xml</dc:format><dc:type
           rdf:resource="http://purl.org/dc/dcmitype/StillImage" /><dc:title></dc:title></cc:Work></rdf:RDF></metadata><defs
     id="defs5266"><clipPath
       clipPathUnits="userSpaceOnUse"
       id="clipPath5280"><path
         d="M 12,12 H 583 V 830 H 12 Z"
         id="path5278"
         inkscape:connector-curvature="0" /></clipPath><clipPath
       clipPathUnits="userSpaceOnUse"
       id="clipPath5298"><path
         d="m 274.8,797.6 h 28.79999 v 13.91998 H 274.8 Z"
         id="path5296"
         inkscape:connector-curvature="0" /></clipPath><clipPath
       clipPathUnits="userSpaceOnUse"
       id="clipPath5314"><path
         d="M 12,12 H 583 V 830 H 12 Z"
         id="path5312"
         inkscape:connector-curvature="0" /></clipPath><clipPath
       clipPathUnits="userSpaceOnUse"
       id="clipPath5596"><path
         d="M 52.8,260 H 270.72 V 468.08 H 52.8 Z"
         id="path5594"
         inkscape:connector-curvature="0" /></clipPath><clipPath
       clipPathUnits="userSpaceOnUse"
       id="clipPath5766"><path
         d="M 270.72,260 H 549.6 V 468.08 H 270.72 Z"
         id="path5764"
         inkscape:connector-curvature="0" /></clipPath><clipPath
       clipPathUnits="userSpaceOnUse"
       id="clipPath5784"><path
         d="M 12,12 H 583 V 830 H 12 Z"
         id="path5782"
         inkscape:connector-curvature="0" /></clipPath><clipPath
       clipPathUnits="userSpaceOnUse"
       id="clipPath5924"><path
         d="m 260.075,724.5852 h 88 v -29 h -88 z"
         id="path5922"
         inkscape:connector-curvature="0" /></clipPath><clipPath
       clipPathUnits="userSpaceOnUse"
       id="clipPath5930"><path
         d="m 266.0778,697.5884 h 75.99442 v 24.99353 H 266.0778 Z"
         id="path5928"
         inkscape:connector-curvature="0" /></clipPath><clipPath
       clipPathUnits="userSpaceOnUse"
       id="clipPath6000"><path
         d="m 12,692.48 h 571 v 34.08002 H 12 Z"
         id="path5998"
         inkscape:connector-curvature="0" /></clipPath><clipPath
       clipPathUnits="userSpaceOnUse"
       id="clipPath6012"><path
         d="M 269.6999,468.0608 H 545.7 v -194 H 269.6999 Z"
         id="path6010"
         inkscape:connector-curvature="0" /></clipPath><clipPath
       clipPathUnits="userSpaceOnUse"
       id="clipPath6018"><path
         d="m 269.6999,274.0608 h 276 v 194 h -276 z"
         id="path6016"
         inkscape:connector-curvature="0" /></clipPath><clipPath
       clipPathUnits="userSpaceOnUse"
       id="clipPath6396"><path
         d="m 278.075,162.5364 h 52 v -25 h -52 z"
         id="path6394"
         inkscape:connector-curvature="0" /></clipPath><clipPath
       clipPathUnits="userSpaceOnUse"
       id="clipPath6402"><path
         d="m 278.075,137.5364 h 52 v 25 h -52 z"
         id="path6400"
         inkscape:connector-curvature="0" /></clipPath><clipPath
       clipPathUnits="userSpaceOnUse"
       id="clipPath6012-4"><path
         d="M 269.6999,468.0608 H 545.7 v -194 H 269.6999 Z"
         id="path6010-8"
         inkscape:connector-curvature="0" /></clipPath><clipPath
       clipPathUnits="userSpaceOnUse"
       id="clipPath6018-5"><path
         d="m 269.6999,274.0608 h 276 v 194 h -276 z"
         id="path6016-1"
         inkscape:connector-curvature="0" /></clipPath><clipPath
       clipPathUnits="userSpaceOnUse"
       id="clipPath5766-1"><path
         d="M 270.72,260 H 549.6 V 468.08 H 270.72 Z"
         id="path5764-2"
         inkscape:connector-curvature="0" /></clipPath></defs><sodipodi:namedview
     pagecolor="#ffffff"
     bordercolor="#666666"
     borderopacity="1"
     objecttolerance="10"
     gridtolerance="10"
     guidetolerance="10"
     inkscape:pageopacity="0"
     inkscape:pageshadow="2"
     inkscape:window-width="1920"
     inkscape:window-height="1017"
     id="namedview5264"
     showgrid="false"
     fit-margin-top="0"
     fit-margin-left="0"
     fit-margin-right="0"
     fit-margin-bottom="0"
     inkscape:zoom="1.6817101"
     inkscape:cx="200.64849"
     inkscape:cy="68.375417"
     inkscape:window-x="1912"
     inkscape:window-y="-8"
     inkscape:window-maximized="1"
     inkscape:current-layer="g5270" /><g
     id="g5270"
     inkscape:groupmode="layer"
     inkscape:label="A 8"
     transform="matrix(1.3333333,0,0,-1.3333333,-51.568412,779.06382)"><g
       transform="translate(-234.02359,118.23708)"
       id="g6006"><g
         id="g6008"
         clip-path="url(#clipPath6012-4)"><g
           id="g6014"
           clip-path="url(#clipPath6018-5)"><g
             id="g6020"
             transform="matrix(1,0,0,-1,269.6999,468.0608)"><path
               d="M 56,113.5 H 75"
               style="fill:none;stroke:#000000;stroke-width:1;stroke-linecap:butt;stroke-linejoin:miter;stroke-miterlimit:10;stroke-dasharray:none;stroke-opacity:1"
               id="path6022"
               inkscape:connector-curvature="0" /></g><path
             d="m 341.6999,371.0608 h 1 v -1 l -7,-15 h -1 v 1"
             style="fill:#000000;fill-opacity:1;fill-rule:nonzero;stroke:none"
             id="path6024"
             inkscape:connector-curvature="0" /><g
             id="g6026"
             transform="matrix(1,0,0,-1,269.6999,468.0608)"><path
               d="M 57,97.5 H 73"
               style="fill:none;stroke:#000000;stroke-width:1;stroke-linecap:butt;stroke-linejoin:miter;stroke-miterlimit:10;stroke-dasharray:none;stroke-opacity:1"
               id="path6028"
               inkscape:connector-curvature="0" /></g><path
             d="m 326.6999,371.0608 h 1 l 8,-15 v -1 h -1 l -8,15"
             style="fill:#000000;fill-opacity:1;fill-rule:nonzero;stroke:none"
             id="path6030"
             inkscape:connector-curvature="0" /><g
             id="g6032"
             transform="matrix(1,0,0,-1,269.6999,468.0608)"><path
               d="m 58.5,21.5 h 13 v 36 h -13 z"
               style="fill:none;stroke:#000000;stroke-width:1;stroke-linecap:butt;stroke-linejoin:miter;stroke-miterlimit:10;stroke-dasharray:none;stroke-opacity:1"
               id="path6034"
               inkscape:connector-curvature="0" /></g><path
             d="m 353.6999,439.0608 -8,-9 -4,7 12,2"
             style="fill:#000000;fill-opacity:1;fill-rule:evenodd;stroke:none"
             id="path6036"
             inkscape:connector-curvature="0" /><path
             d="m 343.6999,434.0608 h 1 v -1 l -26,-14 h -1 v 1"
             style="fill:#000000;fill-opacity:1;fill-rule:nonzero;stroke:none"
             id="path6038"
             inkscape:connector-curvature="0" /><g
             id="g6040"
             transform="matrix(1,0,0,-1,269.6999,468.0608)"><path
               d="M 65.5,58 V 98"
               style="fill:none;stroke:#000000;stroke-width:1;stroke-linecap:butt;stroke-linejoin:miter;stroke-miterlimit:10;stroke-dasharray:none;stroke-opacity:1"
               id="path6042"
               inkscape:connector-curvature="0" /></g><g
             id="g6044"
             transform="matrix(1,0,0,-1,269.6999,468.0608)"><path
               d="m 65.5,112 v 13"
               style="fill:none;stroke:#000000;stroke-width:1;stroke-linecap:butt;stroke-linejoin:miter;stroke-miterlimit:10;stroke-dasharray:none;stroke-opacity:1"
               id="path6046"
               inkscape:connector-curvature="0" /></g><g
             id="g6048"
             transform="matrix(1,0,0,-1,269.6999,468.0608)"><path
               d="m 105.5,5 c 0,1.380707 -1.1193,2.5 -2.5,2.5 -1.3807,0 -2.5,-1.119293 -2.5,-2.5 0,-1.380707 1.1193,-2.5 2.5,-2.5 1.3807,0 2.5,1.119293 2.5,2.5 0,0 0,0 0,0 z"
               style="fill:none;stroke:#000000;stroke-width:1;stroke-linecap:butt;stroke-linejoin:miter;stroke-miterlimit:10;stroke-dasharray:none;stroke-opacity:1"
               id="path6050"
               inkscape:connector-curvature="0" /></g><path
             d="m 371.6999,455.0608 12,4 v -8 l -12,4"
             style="fill:#000000;fill-opacity:1;fill-rule:evenodd;stroke:none"
             id="path6052"
             inkscape:connector-curvature="0" /><g
             id="g6054"
             transform="matrix(1,0,0,-1,269.6999,468.0608)"><path
               d="m 114,13.5 h 69"
               style="fill:none;stroke:#000000;stroke-width:1;stroke-linecap:butt;stroke-linejoin:miter;stroke-miterlimit:10;stroke-dasharray:none;stroke-opacity:1"
               id="path6056"
               inkscape:connector-curvature="0" /></g><g
             id="g6058"
             transform="matrix(1,0,0,-1,269.6999,468.0608)"><path
               d="m 65,88.5 h 36"
               style="fill:none;stroke:#000000;stroke-width:1;stroke-linecap:butt;stroke-linejoin:miter;stroke-miterlimit:10;stroke-dasharray:none;stroke-opacity:1"
               id="path6060"
               inkscape:connector-curvature="0" /></g><g
             id="g6062"
             transform="matrix(1,0,0,-1,269.6999,468.0608)"><path
               d="m 34,125.5 h 75"
               style="fill:none;stroke:#000000;stroke-width:1;stroke-linecap:butt;stroke-linejoin:miter;stroke-miterlimit:10;stroke-dasharray:none;stroke-opacity:1"
               id="path6064"
               inkscape:connector-curvature="0" /></g><g
             id="g6066"
             transform="matrix(1,0,0,-1,269.6999,468.0608)"><path
               d="m 152.5,88.5 c 0,4.97058 -4.0294,9 -9,9 -4.9706,0 -9,-4.02942 -9,-9 0,-4.97058 4.0294,-9 9,-9 4.9706,0 9,4.02942 9,9 0,0 0,0 0,0 z"
               style="fill:none;stroke:#000000;stroke-width:1;stroke-linecap:butt;stroke-linejoin:miter;stroke-miterlimit:10;stroke-dasharray:none;stroke-opacity:1"
               id="path6068"
               inkscape:connector-curvature="0" /></g><path
             d="m 416.6999,379.5608 c 0,-1.933 -1.567,-3.5 -3.5,-3.5 -1.933,0 -3.5,1.567 -3.5,3.5 0,1.933 1.567,3.5 3.5,3.5 1.933,0 3.5,-1.567 3.5,-3.5 0,0 0,0 0,0"
             style="fill:#000000;fill-opacity:1;fill-rule:evenodd;stroke:none"
             id="path6070"
             inkscape:connector-curvature="0" /><g
             id="g6072"
             transform="matrix(1,0,0,-1,269.6999,468.0608)"><path
               d="m 146.5,88.5 c 0,1.65686 -1.3431,3 -3,3 -1.6569,0 -3,-1.34314 -3,-3 0,-1.65686 1.3431,-3 3,-3 1.6569,0 3,1.34314 3,3 0,0 0,0 0,0 z"
               style="fill:none;stroke:#000000;stroke-width:0.390625;stroke-linecap:butt;stroke-linejoin:miter;stroke-miterlimit:10;stroke-dasharray:none;stroke-opacity:1"
               id="path6074"
               inkscape:connector-curvature="0" /></g><g
             id="g6076"
             transform="matrix(1,0,0,-1,269.6999,468.0608)"><path
               d="m 105.5,81 c 0,1.38071 -1.1193,2.5 -2.5,2.5 -1.3807,0 -2.5,-1.11929 -2.5,-2.5 0,-1.38071 1.1193,-2.5 2.5,-2.5 1.3807,0 2.5,1.11929 2.5,2.5 0,0 0,0 0,0 z"
               style="fill:none;stroke:#000000;stroke-width:1;stroke-linecap:butt;stroke-linejoin:miter;stroke-miterlimit:10;stroke-dasharray:none;stroke-opacity:1"
               id="path6078"
               inkscape:connector-curvature="0" /></g><g
             id="g6080"
             transform="matrix(1,0,0,-1,269.6999,468.0608)"><path
               d="m 64.5,14 v 8"
               style="fill:none;stroke:#000000;stroke-width:1;stroke-linecap:butt;stroke-linejoin:miter;stroke-miterlimit:10;stroke-dasharray:none;stroke-opacity:1"
               id="path6082"
               inkscape:connector-curvature="0" /></g><g
             id="g6084"
             transform="matrix(1,0,0,-1,269.6999,468.0608)"><path
               d="m 64,14.5 h 37"
               style="fill:none;stroke:#000000;stroke-width:1;stroke-linecap:butt;stroke-linejoin:miter;stroke-miterlimit:10;stroke-dasharray:none;stroke-opacity:1"
               id="path6086"
               inkscape:connector-curvature="0" /></g><g
             id="g6088"
             transform="matrix(1,0,0,-1,269.6999,468.0608)"><path
               d="M 26,113.5 H 45"
               style="fill:none;stroke:#000000;stroke-width:1;stroke-linecap:butt;stroke-linejoin:miter;stroke-miterlimit:10;stroke-dasharray:none;stroke-opacity:1"
               id="path6090"
               inkscape:connector-curvature="0" /></g><path
             d="m 312.6999,371.0608 h 1 v -1 l -8,-15 h -1 v 1"
             style="fill:#000000;fill-opacity:1;fill-rule:nonzero;stroke:none"
             id="path6092"
             inkscape:connector-curvature="0" /><g
             id="g6094"
             transform="matrix(1,0,0,-1,269.6999,468.0608)"><path
               d="M 27,97.5 H 44"
               style="fill:none;stroke:#000000;stroke-width:1;stroke-linecap:butt;stroke-linejoin:miter;stroke-miterlimit:10;stroke-dasharray:none;stroke-opacity:1"
               id="path6096"
               inkscape:connector-curvature="0" /></g><path
             d="m 296.6999,371.0608 h 1 l 8,-15 v -1 h -1 l -8,15"
             style="fill:#000000;fill-opacity:1;fill-rule:nonzero;stroke:none"
             id="path6098"
             inkscape:connector-curvature="0" /><g
             id="g6100"
             transform="matrix(1,0,0,-1,269.6999,468.0608)"><path
               d="m 28.5,22.5 h 14 v 35 h -14 z"
               style="fill:none;stroke:#000000;stroke-width:1;stroke-linecap:butt;stroke-linejoin:miter;stroke-miterlimit:10;stroke-dasharray:none;stroke-opacity:1"
               id="path6102"
               inkscape:connector-curvature="0" /></g><path
             d="m 323.6999,439.0608 -8,-9 -4,7 12,2"
             style="fill:#000000;fill-opacity:1;fill-rule:evenodd;stroke:none"
             id="path6104"
             inkscape:connector-curvature="0" /><path
             d="m 313.6999,433.0608 h 1 v -1 l -26,-13 h -1 v 1"
             style="fill:#000000;fill-opacity:1;fill-rule:nonzero;stroke:none"
             id="path6106"
             inkscape:connector-curvature="0" /><g
             id="g6108"
             transform="matrix(1,0,0,-1,269.6999,468.0608)"><path
               d="M 35.5,58 V 98"
               style="fill:none;stroke:#000000;stroke-width:1;stroke-linecap:butt;stroke-linejoin:miter;stroke-miterlimit:10;stroke-dasharray:none;stroke-opacity:1"
               id="path6110"
               inkscape:connector-curvature="0" /></g><g
             id="g6112"
             transform="matrix(1,0,0,-1,269.6999,468.0608)"><path
               d="m 35.5,112 v 13"
               style="fill:none;stroke:#000000;stroke-width:1;stroke-linecap:butt;stroke-linejoin:miter;stroke-miterlimit:10;stroke-dasharray:none;stroke-opacity:1"
               id="path6114"
               inkscape:connector-curvature="0" /></g><g
             id="g6116"
             transform="matrix(1,0,0,-1,269.6999,468.0608)"><path
               d="M 35,80.5 H 62"
               style="fill:none;stroke:#000000;stroke-width:1;stroke-linecap:butt;stroke-linejoin:miter;stroke-miterlimit:10;stroke-dasharray:none;stroke-opacity:1"
               id="path6118"
               inkscape:connector-curvature="0" /></g><g
             id="g6120"
             transform="matrix(1,0,0,-1,269.6999,468.0608)"><path
               d="m 69,80.5 h 32"
               style="fill:none;stroke:#000000;stroke-width:1;stroke-linecap:butt;stroke-linejoin:miter;stroke-miterlimit:10;stroke-dasharray:none;stroke-opacity:1"
               id="path6122"
               inkscape:connector-curvature="0" /></g><g
             id="g6124"
             transform="matrix(1,0,0,-1,269.6999,468.0608)"><path
               d="m 69.5,80 c 0,3.03757 -1.79086,5.5 -4,5.5 -2.20914,0 -4,-2.46243 -4,-5.5 0,0 0,0 0,0"
               style="fill:none;stroke:#000000;stroke-width:1;stroke-linecap:butt;stroke-linejoin:miter;stroke-miterlimit:10;stroke-dasharray:none;stroke-opacity:1"
               id="path6126"
               inkscape:connector-curvature="0" /></g><g
             id="g6128"
             transform="matrix(1,0,0,-1,269.6999,468.0608)"><path
               d="m 33,124.5 h 3"
               style="fill:none;stroke:#000000;stroke-width:1;stroke-linecap:butt;stroke-linejoin:miter;stroke-miterlimit:10;stroke-dasharray:none;stroke-opacity:1"
               id="path6130"
               inkscape:connector-curvature="0" /></g><g
             id="g6132"
             transform="matrix(1,0,0,-1,269.6999,468.0608)"><path
               d="m 28,124.5 h 3"
               style="fill:none;stroke:#000000;stroke-width:1;stroke-linecap:butt;stroke-linejoin:miter;stroke-miterlimit:10;stroke-dasharray:none;stroke-opacity:1"
               id="path6134"
               inkscape:connector-curvature="0" /></g><g
             id="g6136"
             transform="matrix(1,0,0,-1,269.6999,468.0608)"><path
               d="m 24,124.5 h 3"
               style="fill:none;stroke:#000000;stroke-width:1;stroke-linecap:butt;stroke-linejoin:miter;stroke-miterlimit:10;stroke-dasharray:none;stroke-opacity:1"
               id="path6138"
               inkscape:connector-curvature="0" /></g><g
             id="g6140"
             transform="matrix(1,0,0,-1,269.6999,468.0608)"><path
               d="m 20,124.5 h 3"
               style="fill:none;stroke:#000000;stroke-width:1;stroke-linecap:butt;stroke-linejoin:miter;stroke-miterlimit:10;stroke-dasharray:none;stroke-opacity:1"
               id="path6142"
               inkscape:connector-curvature="0" /></g><g
             id="g6144"
             transform="matrix(1,0,0,-1,269.6999,468.0608)"><path
               d="m 16,124.5 h 3"
               style="fill:none;stroke:#000000;stroke-width:1;stroke-linecap:butt;stroke-linejoin:miter;stroke-miterlimit:10;stroke-dasharray:none;stroke-opacity:1"
               id="path6146"
               inkscape:connector-curvature="0" /></g><g
             id="g6148"
             transform="matrix(1,0,0,-1,269.6999,468.0608)"><path
               d="m 12,124.5 h 3"
               style="fill:none;stroke:#000000;stroke-width:1;stroke-linecap:butt;stroke-linejoin:miter;stroke-miterlimit:10;stroke-dasharray:none;stroke-opacity:1"
               id="path6150"
               inkscape:connector-curvature="0" /></g><g
             id="g6152"
             transform="matrix(1,0,0,-1,269.6999,468.0608)"><path
               d="m 8,124.5 h 3"
               style="fill:none;stroke:#000000;stroke-width:1;stroke-linecap:butt;stroke-linejoin:miter;stroke-miterlimit:10;stroke-dasharray:none;stroke-opacity:1"
               id="path6154"
               inkscape:connector-curvature="0" /></g><g
             id="g6156"
             transform="matrix(1,0,0,-1,269.6999,468.0608)"><path
               d="M 3,124.5 H 6"
               style="fill:none;stroke:#000000;stroke-width:1;stroke-linecap:butt;stroke-linejoin:miter;stroke-miterlimit:10;stroke-dasharray:none;stroke-opacity:1"
               id="path6158"
               inkscape:connector-curvature="0" /></g><path
             d="m 349.6999,369.0608 -4,-8 -4,5 8,3"
             style="fill:#000000;fill-opacity:1;fill-rule:evenodd;stroke:none"
             id="path6160"
             inkscape:connector-curvature="0" /><path
             d="m 343.6999,363.0608 h 0.5 v -0.5 l -5,-6 h -0.5 v 0.5"
             style="fill:#000000;fill-opacity:1;fill-rule:nonzero;stroke:none"
             id="path6162"
             inkscape:connector-curvature="0" /><path
             d="m 355.6999,369.0608 -4,-8 -4,5 8,3"
             style="fill:#000000;fill-opacity:1;fill-rule:evenodd;stroke:none"
             id="path6164"
             inkscape:connector-curvature="0" /><path
             d="m 349.6999,363.0608 h 0.5 v -0.5 l -6,-6 h -0.5 v 0.5"
             style="fill:#000000;fill-opacity:1;fill-rule:nonzero;stroke:none"
             id="path6166"
             inkscape:connector-curvature="0" /><path
             d="m 318.6999,369.0608 -4,-8 -4,5 8,3"
             style="fill:#000000;fill-opacity:1;fill-rule:evenodd;stroke:none"
             id="path6168"
             inkscape:connector-curvature="0" /><path
             d="m 312.6999,363.0608 h 0.5 v -0.5 l -5,-6 h -0.5 v 0.5"
             style="fill:#000000;fill-opacity:1;fill-rule:nonzero;stroke:none"
             id="path6170"
             inkscape:connector-curvature="0" /><path
             d="m 324.6999,369.0608 -4,-8 -4,5 8,3"
             style="fill:#000000;fill-opacity:1;fill-rule:evenodd;stroke:none"
             id="path6172"
             inkscape:connector-curvature="0" /><path
             d="m 318.6999,363.0608 h 0.5 v -0.5 l -5,-6 h -0.5 v 0.5"
             style="fill:#000000;fill-opacity:1;fill-rule:nonzero;stroke:none"
             id="path6174"
             inkscape:connector-curvature="0" /><g
             id="g6176"
             transform="matrix(1,0,0,-1,269.6999,468.0608)"><path
               d="m 117.5,124.5 c 0,4.9706 -3.8056,9 -8.5,9 -4.6944,0 -8.5,-4.0294 -8.5,-9 0,-4.9706 3.8056,-9 8.5,-9 4.6944,0 8.5,4.0294 8.5,9 0,0 0,0 0,0 z"
               style="fill:none;stroke:#000000;stroke-width:1;stroke-linecap:butt;stroke-linejoin:miter;stroke-miterlimit:10;stroke-dasharray:none;stroke-opacity:1"
               id="path6178"
               inkscape:connector-curvature="0" /></g><path
             d="m 382.6999,343.5608 c 0,-1.933 -1.7909,-3.5 -4,-3.5 -2.2091,0 -4,1.567 -4,3.5 0,1.933 1.7909,3.5 4,3.5 2.2091,0 4,-1.567 4,-3.5 0,0 0,0 0,0"
             style="fill:#000000;fill-opacity:1;fill-rule:evenodd;stroke:none"
             id="path6180"
             inkscape:connector-curvature="0" /><g
             id="g6182"
             transform="matrix(1,0,0,-1,269.6999,468.0608)"><path
               d="m 112.5,124.5 c 0,1.6569 -1.567,3 -3.5,3 -1.933,0 -3.5,-1.3431 -3.5,-3 0,-1.6569 1.567,-3 3.5,-3 1.933,0 3.5,1.3431 3.5,3 0,0 0,0 0,0 z"
               style="fill:none;stroke:#000000;stroke-width:0.390625;stroke-linecap:butt;stroke-linejoin:miter;stroke-miterlimit:10;stroke-dasharray:none;stroke-opacity:1"
               id="path6184"
               inkscape:connector-curvature="0" /></g><g
             id="g6186"
             transform="matrix(1,0,0,-1,269.6999,468.0608)"><path
               d="m 59.5,138.5 h 12 v 29 h -12 z"
               style="fill:none;stroke:#000000;stroke-width:1;stroke-linecap:butt;stroke-linejoin:miter;stroke-miterlimit:10;stroke-dasharray:none;stroke-opacity:1"
               id="path6188"
               inkscape:connector-curvature="0" /></g><g
             id="g6190"
             transform="matrix(1,0,0,-1,269.6999,468.0608)"><path
               d="m 64.5,125 v 13"
               style="fill:none;stroke:#000000;stroke-width:1;stroke-linecap:butt;stroke-linejoin:miter;stroke-miterlimit:10;stroke-dasharray:none;stroke-opacity:1"
               id="path6192"
               inkscape:connector-curvature="0" /></g><g
             id="g6194"
             transform="matrix(1,0,0,-1,269.6999,468.0608)"><path
               d="m 64.5,167 v 17"
               style="fill:none;stroke:#000000;stroke-width:1;stroke-linecap:butt;stroke-linejoin:miter;stroke-miterlimit:10;stroke-dasharray:none;stroke-opacity:1"
               id="path6196"
               inkscape:connector-curvature="0" /></g><g
             id="g6198"
             transform="matrix(1,0,0,-1,269.6999,468.0608)"><path
               d="M 64,183.5 H 183"
               style="fill:none;stroke:#000000;stroke-width:1;stroke-linecap:butt;stroke-linejoin:miter;stroke-miterlimit:10;stroke-dasharray:none;stroke-opacity:1"
               id="path6200"
               inkscape:connector-curvature="0" /></g><g
             id="g6202"
             transform="matrix(1,0,0,-1,269.6999,468.0608)"><path
               d="M 35.5,5 V 22"
               style="fill:none;stroke:#000000;stroke-width:1;stroke-linecap:butt;stroke-linejoin:miter;stroke-miterlimit:10;stroke-dasharray:none;stroke-opacity:1"
               id="path6204"
               inkscape:connector-curvature="0" /></g><g
             id="g6206"
             transform="matrix(1,0,0,-1,269.6999,468.0608)"><path
               d="m 35,5.5 h 66"
               style="fill:none;stroke:#000000;stroke-width:1;stroke-linecap:butt;stroke-linejoin:miter;stroke-miterlimit:10;stroke-dasharray:none;stroke-opacity:1"
               id="path6208"
               inkscape:connector-curvature="0" /></g><g
             id="g6210"
             transform="matrix(1,0,0,-1,269.6999,468.0608)"><path
               d="m 105.5,14 c 0,1.38071 -1.1193,2.5 -2.5,2.5 -1.3807,0 -2.5,-1.11929 -2.5,-2.5 0,-1.38071 1.1193,-2.5 2.5,-2.5 1.3807,0 2.5,1.11929 2.5,2.5 0,0 0,0 0,0 z"
               style="fill:none;stroke:#000000;stroke-width:1;stroke-linecap:butt;stroke-linejoin:miter;stroke-miterlimit:10;stroke-dasharray:none;stroke-opacity:1"
               id="path6212"
               inkscape:connector-curvature="0" /></g><g
             id="g6214"
             transform="matrix(1,0,0,-1,269.6999,468.0608)"><path
               d="m 105.5,88 c 0,1.38071 -1.1193,2.5 -2.5,2.5 -1.3807,0 -2.5,-1.11929 -2.5,-2.5 0,-1.38071 1.1193,-2.5 2.5,-2.5 1.3807,0 2.5,1.11929 2.5,2.5 0,0 0,0 0,0 z"
               style="fill:none;stroke:#000000;stroke-width:1;stroke-linecap:butt;stroke-linejoin:miter;stroke-miterlimit:10;stroke-dasharray:none;stroke-opacity:1"
               id="path6216"
               inkscape:connector-curvature="0" /></g><path
             d="m 372.6999,380.0608 12,4 -1,-8 -11,4"
             style="fill:#000000;fill-opacity:1;fill-rule:evenodd;stroke:none"
             id="path6218"
             inkscape:connector-curvature="0" /><g
             id="g6220"
             transform="matrix(1,0,0,-1,269.6999,468.0608)"><path
               d="m 115,88.5 h 27"
               style="fill:none;stroke:#000000;stroke-width:1;stroke-linecap:butt;stroke-linejoin:miter;stroke-miterlimit:10;stroke-dasharray:none;stroke-opacity:1"
               id="path6222"
               inkscape:connector-curvature="0" /></g><g
             id="g6224"
             transform="matrix(1,0,0,-1,269.6999,468.0608)"><path
               d="m 144.5,97 v 86"
               style="fill:none;stroke:#000000;stroke-width:1;stroke-linecap:butt;stroke-linejoin:miter;stroke-miterlimit:10;stroke-dasharray:none;stroke-opacity:1"
               id="path6226"
               inkscape:connector-curvature="0" /></g><g
             id="g6228"
             transform="matrix(1,0,0,-1,269.6999,468.0608)"><text
               transform="translate(74,156)"
               style="font-variant:normal;font-weight:normal;font-size:10px;font-family:Helvetica;-inkscape-font-specification:Helvetica;writing-mode:lr-tb;fill:#000000;fill-opacity:1;fill-rule:nonzero;stroke:none"
               id="text6232"><tspan
                 x="0 5.5619998 11.124"
                 y="0"
                 sodipodi:role="line"
                 id="tspan6230">10</tspan></text>
</g><g
             id="g6234"
             transform="matrix(1,0,0,-1,269.6999,468.0608)"><text
               transform="translate(87.906,156)"
               style="font-variant:normal;font-weight:normal;font-size:10px;font-family:Helvetica;-inkscape-font-specification:Helvetica;writing-mode:lr-tb;fill:#000000;fill-opacity:1;fill-rule:nonzero;stroke:none"
               id="text6238"><tspan
                 x="0"
                 y="0"
                 id="tspan6236">Ω</tspan></text>
</g><g
             id="g6240"
             transform="matrix(1,0,0,-1,269.6999,468.0608)"><path
               d="m 192.5,14 c 0,2.48529 -2.0147,4.5 -4.5,4.5 -2.4853,0 -4.5,-2.01471 -4.5,-4.5 0,-2.48529 2.0147,-4.5 4.5,-4.5 2.4853,0 4.5,2.01471 4.5,4.5 0,0 0,0 0,0 z"
               style="fill:none;stroke:#000000;stroke-width:1.5;stroke-linecap:butt;stroke-linejoin:miter;stroke-miterlimit:10;stroke-dasharray:none;stroke-opacity:1"
               id="path6242"
               inkscape:connector-curvature="0" /></g><g
             id="g6244"
             transform="matrix(1,0,0,-1,269.6999,468.0608)"><path
               d="m 192.5,183 c 0,2.4853 -2.0147,4.5 -4.5,4.5 -2.4853,0 -4.5,-2.0147 -4.5,-4.5 0,-2.4853 2.0147,-4.5 4.5,-4.5 2.4853,0 4.5,2.0147 4.5,4.5 0,0 0,0 0,0 z"
               style="fill:none;stroke:#000000;stroke-width:1.5;stroke-linecap:butt;stroke-linejoin:miter;stroke-miterlimit:10;stroke-dasharray:none;stroke-opacity:1"
               id="path6246"
               inkscape:connector-curvature="0" /></g><g
             id="g6248"
             transform="matrix(1,0,0,-1,269.6999,468.0608)"><path
               d="m 123.5,83 v 6"
               style="fill:none;stroke:#000000;stroke-width:1;stroke-linecap:butt;stroke-linejoin:miter;stroke-miterlimit:10;stroke-dasharray:none;stroke-opacity:1"
               id="path6250"
               inkscape:connector-curvature="0" /></g><g
             id="g6252"
             transform="matrix(1,0,0,-1,269.6999,468.0608)"><path
               d="m 123.5,74 v 7"
               style="fill:none;stroke:#000000;stroke-width:1;stroke-linecap:butt;stroke-linejoin:miter;stroke-miterlimit:10;stroke-dasharray:none;stroke-opacity:1"
               id="path6254"
               inkscape:connector-curvature="0" /></g><g
             id="g6256"
             transform="matrix(1,0,0,-1,269.6999,468.0608)"><path
               d="m 123.5,66 v 6"
               style="fill:none;stroke:#000000;stroke-width:1;stroke-linecap:butt;stroke-linejoin:miter;stroke-miterlimit:10;stroke-dasharray:none;stroke-opacity:1"
               id="path6258"
               inkscape:connector-curvature="0" /></g><g
             id="g6260"
             transform="matrix(1,0,0,-1,269.6999,468.0608)"><path
               d="m 123.5,58 v 6"
               style="fill:none;stroke:#000000;stroke-width:1;stroke-linecap:butt;stroke-linejoin:miter;stroke-miterlimit:10;stroke-dasharray:none;stroke-opacity:1"
               id="path6262"
               inkscape:connector-curvature="0" /></g><g
             id="g6264"
             transform="matrix(1,0,0,-1,269.6999,468.0608)"><path
               d="m 123.5,49 v 7"
               style="fill:none;stroke:#000000;stroke-width:1;stroke-linecap:butt;stroke-linejoin:miter;stroke-miterlimit:10;stroke-dasharray:none;stroke-opacity:1"
               id="path6266"
               inkscape:connector-curvature="0" /></g><g
             id="g6268"
             transform="matrix(1,0,0,-1,269.6999,468.0608)"><path
               d="m 123.5,41 v 6"
               style="fill:none;stroke:#000000;stroke-width:1;stroke-linecap:butt;stroke-linejoin:miter;stroke-miterlimit:10;stroke-dasharray:none;stroke-opacity:1"
               id="path6270"
               inkscape:connector-curvature="0" /></g><g
             id="g6272"
             transform="matrix(1,0,0,-1,269.6999,468.0608)"><path
               d="m 123.5,33 v 6"
               style="fill:none;stroke:#000000;stroke-width:1;stroke-linecap:butt;stroke-linejoin:miter;stroke-miterlimit:10;stroke-dasharray:none;stroke-opacity:1"
               id="path6274"
               inkscape:connector-curvature="0" /></g><g
             id="g6276"
             transform="matrix(1,0,0,-1,269.6999,468.0608)"><path
               d="m 123.5,24 v 7"
               style="fill:none;stroke:#000000;stroke-width:1;stroke-linecap:butt;stroke-linejoin:miter;stroke-miterlimit:10;stroke-dasharray:none;stroke-opacity:1"
               id="path6278"
               inkscape:connector-curvature="0" /></g><g
             id="g6280"
             transform="matrix(1,0,0,-1,269.6999,468.0608)"><path
               d="m 123.5,16 v 6"
               style="fill:none;stroke:#000000;stroke-width:1;stroke-linecap:butt;stroke-linejoin:miter;stroke-miterlimit:10;stroke-dasharray:none;stroke-opacity:1"
               id="path6282"
               inkscape:connector-curvature="0" /></g><g
             id="g6284"
             transform="matrix(1,0,0,-1,269.6999,468.0608)"><path
               d="m 123.5,13 v 1"
               style="fill:none;stroke:#000000;stroke-width:1;stroke-linecap:butt;stroke-linejoin:miter;stroke-miterlimit:10;stroke-dasharray:none;stroke-opacity:1"
               id="path6286"
               inkscape:connector-curvature="0" /></g><g
             id="g6288"
             transform="matrix(1,0,0,-1,269.6999,468.0608)"><text
               transform="translate(123,129)"
               style="font-variant:normal;font-weight:normal;font-size:14px;font-family:'Times New Roman';-inkscape-font-specification:Times-Roman;writing-mode:lr-tb;fill:#000000;fill-opacity:1;fill-rule:nonzero;stroke:none"
               id="text6292"><tspan
                 x="0"
                 y="0"
                 id="tspan6290">I</tspan></text>
</g><g
             id="g6294"
             transform="matrix(1,0,0,-1,269.6999,468.0608)"><text
               transform="translate(161,93)"
               style="font-variant:normal;font-weight:normal;font-size:14px;font-family:'Times New Roman';-inkscape-font-specification:Times-Roman;writing-mode:lr-tb;fill:#000000;fill-opacity:1;fill-rule:nonzero;stroke:none"
               id="text6298"><tspan
                 x="0"
                 y="0"
                 id="tspan6296">U</tspan></text>
</g><path
             d="m 481.6999,380.0608 -11,-4 v 8 l 11,-4"
             style="fill:#000000;fill-opacity:1;fill-rule:evenodd;stroke:none"
             id="path6300"
             inkscape:connector-curvature="0" /><g
             id="g6302"
             transform="matrix(1,0,0,-1,269.6999,468.0608)"><path
               d="m 173,88.5 h 7"
               style="fill:none;stroke:#000000;stroke-width:1;stroke-linecap:butt;stroke-linejoin:miter;stroke-miterlimit:10;stroke-dasharray:none;stroke-opacity:1"
               id="path6304"
               inkscape:connector-curvature="0" /></g><g
             id="g6306"
             transform="matrix(1,0,0,-1,269.6999,468.0608)"><path
               d="m 182,88.5 h 6"
               style="fill:none;stroke:#000000;stroke-width:1;stroke-linecap:butt;stroke-linejoin:miter;stroke-miterlimit:10;stroke-dasharray:none;stroke-opacity:1"
               id="path6308"
               inkscape:connector-curvature="0" /></g><g
             id="g6310"
             transform="matrix(1,0,0,-1,269.6999,468.0608)"><path
               d="m 190,88.5 h 6"
               style="fill:none;stroke:#000000;stroke-width:1;stroke-linecap:butt;stroke-linejoin:miter;stroke-miterlimit:10;stroke-dasharray:none;stroke-opacity:1"
               id="path6312"
               inkscape:connector-curvature="0" /></g><g
             id="g6314"
             transform="matrix(1,0,0,-1,269.6999,468.0608)"><path
               d="m 198,88.5 h 4"
               style="fill:none;stroke:#000000;stroke-width:1;stroke-linecap:butt;stroke-linejoin:miter;stroke-miterlimit:10;stroke-dasharray:none;stroke-opacity:1"
               id="path6316"
               inkscape:connector-curvature="0" /></g><path
             d="m 481.6999,345.0608 -12,-4 v 8 l 12,-4"
             style="fill:#000000;fill-opacity:1;fill-rule:evenodd;stroke:none"
             id="path6318"
             inkscape:connector-curvature="0" /><g
             id="g6320"
             transform="matrix(1,0,0,-1,269.6999,468.0608)"><path
               d="m 132,123.5 h 6"
               style="fill:none;stroke:#000000;stroke-width:1;stroke-linecap:butt;stroke-linejoin:miter;stroke-miterlimit:10;stroke-dasharray:none;stroke-opacity:1"
               id="path6322"
               inkscape:connector-curvature="0" /></g><g
             id="g6324"
             transform="matrix(1,0,0,-1,269.6999,468.0608)"><path
               d="m 140,123.5 h 7"
               style="fill:none;stroke:#000000;stroke-width:1;stroke-linecap:butt;stroke-linejoin:miter;stroke-miterlimit:10;stroke-dasharray:none;stroke-opacity:1"
               id="path6326"
               inkscape:connector-curvature="0" /></g><g
             id="g6328"
             transform="matrix(1,0,0,-1,269.6999,468.0608)"><path
               d="m 149,123.5 h 6"
               style="fill:none;stroke:#000000;stroke-width:1;stroke-linecap:butt;stroke-linejoin:miter;stroke-miterlimit:10;stroke-dasharray:none;stroke-opacity:1"
               id="path6330"
               inkscape:connector-curvature="0" /></g><g
             id="g6332"
             transform="matrix(1,0,0,-1,269.6999,468.0608)"><path
               d="m 157,123.5 h 6"
               style="fill:none;stroke:#000000;stroke-width:1;stroke-linecap:butt;stroke-linejoin:miter;stroke-miterlimit:10;stroke-dasharray:none;stroke-opacity:1"
               id="path6334"
               inkscape:connector-curvature="0" /></g><g
             id="g6336"
             transform="matrix(1,0,0,-1,269.6999,468.0608)"><path
               d="m 165,123.5 h 7"
               style="fill:none;stroke:#000000;stroke-width:1;stroke-linecap:butt;stroke-linejoin:miter;stroke-miterlimit:10;stroke-dasharray:none;stroke-opacity:1"
               id="path6338"
               inkscape:connector-curvature="0" /></g><g
             id="g6340"
             transform="matrix(1,0,0,-1,269.6999,468.0608)"><path
               d="m 174,123.5 h 6"
               style="fill:none;stroke:#000000;stroke-width:1;stroke-linecap:butt;stroke-linejoin:miter;stroke-miterlimit:10;stroke-dasharray:none;stroke-opacity:1"
               id="path6342"
               inkscape:connector-curvature="0" /></g><g
             id="g6344"
             transform="matrix(1,0,0,-1,269.6999,468.0608)"><path
               d="m 182,123.5 h 6"
               style="fill:none;stroke:#000000;stroke-width:1;stroke-linecap:butt;stroke-linejoin:miter;stroke-miterlimit:10;stroke-dasharray:none;stroke-opacity:1"
               id="path6346"
               inkscape:connector-curvature="0" /></g><g
             id="g6348"
             transform="matrix(1,0,0,-1,269.6999,468.0608)"><path
               d="m 190,123.5 h 6"
               style="fill:none;stroke:#000000;stroke-width:1;stroke-linecap:butt;stroke-linejoin:miter;stroke-miterlimit:10;stroke-dasharray:none;stroke-opacity:1"
               id="path6350"
               inkscape:connector-curvature="0" /></g><g
             id="g6352"
             transform="matrix(1,0,0,-1,269.6999,468.0608)"><path
               d="m 199,123.5 h 2"
               style="fill:none;stroke:#000000;stroke-width:1;stroke-linecap:butt;stroke-linejoin:miter;stroke-miterlimit:10;stroke-dasharray:none;stroke-opacity:1"
               id="path6354"
               inkscape:connector-curvature="0" /></g><g
             id="g6356"
             transform="matrix(1,0,0,-1,269.6999,468.0608)"><text
               transform="translate(217,93)"
               style="font-variant:normal;font-weight:normal;font-size:12px;font-family:Geneva;-inkscape-font-specification:Geneva;writing-mode:lr-tb;fill:#000000;fill-opacity:1;fill-rule:nonzero;stroke:none"
               id="text6360"><tspan
                 x="0 7.9572001 14.5944 21.5916 25.2288 29.226 37.2192 41.2164 46.5816 53.902802"
                 y="0"
                 sodipodi:role="line"
                 id="tspan6358">Kan. 1 (X)</tspan></text>
</g><g
             id="g6362"
             transform="matrix(1,0,0,-1,269.6999,468.0608)"><text
               transform="translate(217,127)"
               style="font-variant:normal;font-weight:normal;font-size:12px;font-family:Geneva;-inkscape-font-specification:Geneva;writing-mode:lr-tb;fill:#000000;fill-opacity:1;fill-rule:nonzero;stroke:none"
               id="text6366"><tspan
                 x="0 7.9572001 14.5944 21.5916 25.2288 29.226 37.2192 41.2164 46.5816 53.902802"
                 y="0"
                 sodipodi:role="line"
                 id="tspan6364">Kan. 2 (Y)</tspan></text>
</g><g
             id="g6368"
             transform="matrix(1,0,0,-1,269.6999,468.0608)"><text
               transform="translate(201,19)"
               style="font-variant:normal;font-weight:normal;font-size:18px;font-family:Geneva;-inkscape-font-specification:Geneva;writing-mode:lr-tb;fill:#000000;fill-opacity:1;fill-rule:nonzero;stroke:none"
               id="text6372"><tspan
                 x="0"
                 y="0"
                 id="tspan6370">+</tspan></text>
</g><g
             id="g6374"
             transform="matrix(1,0,0,-1,269.6999,468.0608)"><text
               transform="translate(204,189)"
               style="font-variant:normal;font-weight:normal;font-size:18px;font-family:Geneva;-inkscape-font-specification:Geneva;writing-mode:lr-tb;fill:#000000;fill-opacity:1;fill-rule:nonzero;stroke:none"
               id="text6378"><tspan
                 x="0"
                 y="0"
                 id="tspan6376">-</tspan></text>
</g><g
             id="g6380"
             transform="matrix(1,0,0,-1,269.6999,468.0608)"><path
               d="m 108.5,132 v 51"
               style="fill:none;stroke:#000000;stroke-width:1;stroke-linecap:butt;stroke-linejoin:miter;stroke-miterlimit:10;stroke-dasharray:none;stroke-opacity:1"
               id="path6382"
               inkscape:connector-curvature="0" /></g><g
             id="g6384"
             transform="matrix(1,0,0,-1,269.6999,468.0608)"><text
               transform="translate(131,53)"
               style="font-variant:normal;font-weight:normal;font-size:12px;font-family:Geneva;-inkscape-font-specification:Geneva;writing-mode:lr-tb;fill:#000000;fill-opacity:1;fill-rule:nonzero;stroke:none"
               id="text6388"><tspan
                 x="0 7.2719998 13.8168 20.8188 27.457199 30.275999 35.596802 42.505199"
                 y="0"
                 sodipodi:role="line"
                 id="tspan6386">Schalter</tspan></text>
</g></g></g></g></g></svg>