<?xml version="1.0" encoding="UTF-8" standalone="no"?>
<!-- Created with Inkscape (http://www.inkscape.org/) -->

<svg
   xmlns:dc="http://purl.org/dc/elements/1.1/"
   xmlns:cc="http://creativecommons.org/ns#"
   xmlns:rdf="http://www.w3.org/1999/02/22-rdf-syntax-ns#"
   xmlns:svg="http://www.w3.org/2000/svg"
   xmlns="http://www.w3.org/2000/svg"
   xmlns:sodipodi="http://sodipodi.sourceforge.net/DTD/sodipodi-0.dtd"
   xmlns:inkscape="http://www.inkscape.org/namespaces/inkscape"
   version="1.1"
   id="svg815"
   xml:space="preserve"
   width="222.55576"
   height="192.20102"
   viewBox="0 0 222.55575 192.20101"
   sodipodi:docname="millikan.svg"
   inkscape:version="0.92.3 (2405546, 2018-03-11)"><metadata
     id="metadata821"><rdf:RDF><cc:Work
         rdf:about=""><dc:format>image/svg+xml</dc:format><dc:type
           rdf:resource="http://purl.org/dc/dcmitype/StillImage" /><dc:title></dc:title></cc:Work></rdf:RDF></metadata><defs
     id="defs819"><clipPath
       clipPathUnits="userSpaceOnUse"
       id="clipPath833"><path
         d="M 12,12 H 583 V 830 H 12 Z"
         id="path831"
         inkscape:connector-curvature="0" /></clipPath><clipPath
       clipPathUnits="userSpaceOnUse"
       id="clipPath851"><path
         d="m 274.8,797.6 h 28.79999 v 13.91998 H 274.8 Z"
         id="path849"
         inkscape:connector-curvature="0" /></clipPath><clipPath
       clipPathUnits="userSpaceOnUse"
       id="clipPath867"><path
         d="M 12,12 H 583 V 830 H 12 Z"
         id="path865"
         inkscape:connector-curvature="0" /></clipPath><clipPath
       clipPathUnits="userSpaceOnUse"
       id="clipPath1527"><path
         d="M 52.8,134.96 H 368.64 V 308.24 H 52.8 Z"
         id="path1525"
         inkscape:connector-curvature="0" /></clipPath><clipPath
       clipPathUnits="userSpaceOnUse"
       id="clipPath1661"><path
         d="M 368.64,134.96 H 547.68 V 308.24 H 368.64 Z"
         id="path1659"
         inkscape:connector-curvature="0" /></clipPath><clipPath
       clipPathUnits="userSpaceOnUse"
       id="clipPath1685"><path
         d="M 12,12 H 583 V 830 H 12 Z"
         id="path1683"
         inkscape:connector-curvature="0" /></clipPath><clipPath
       clipPathUnits="userSpaceOnUse"
       id="clipPath1735"><path
         d="m 138.2163,645.3001 h 12 v -18 h -12 z"
         id="path1733"
         inkscape:connector-curvature="0" /></clipPath><clipPath
       clipPathUnits="userSpaceOnUse"
       id="clipPath1741"><path
         d="m 138.2163,627.3001 h 12 V 645.2 h -12 z"
         id="path1739"
         inkscape:connector-curvature="0" /></clipPath><clipPath
       clipPathUnits="userSpaceOnUse"
       id="clipPath1765"><path
         d="m 56.69992,181.0588 h 63.99998 v -18 H 56.69992 Z"
         id="path1763"
         inkscape:connector-curvature="0" /></clipPath><clipPath
       clipPathUnits="userSpaceOnUse"
       id="clipPath1771"><path
         d="m 56.69992,163.0588 h 64 v 18 h -64 z"
         id="path1769"
         inkscape:connector-curvature="0" /></clipPath><clipPath
       clipPathUnits="userSpaceOnUse"
       id="clipPath1833"><path
         d="M 373.6999,308.1233 H 542.7 v -148 H 373.6999 Z"
         id="path1831"
         inkscape:connector-curvature="0" /></clipPath><clipPath
       clipPathUnits="userSpaceOnUse"
       id="clipPath1839"><path
         d="m 373.6999,160.1233 h 169 v 148 h -169 z"
         id="path1837"
         inkscape:connector-curvature="0" /></clipPath><clipPath
       clipPathUnits="userSpaceOnUse"
       id="clipPath1855"><path
         d="M 373.6999,308.1233 H 542.7 v -148 H 373.6999 Z"
         id="path1853"
         inkscape:connector-curvature="0" /></clipPath><clipPath
       clipPathUnits="userSpaceOnUse"
       id="clipPath1861"><path
         d="m 373.6999,307.6603 h 168.959 v -144.479 h -168.959 z"
         id="path1859"
         inkscape:connector-curvature="0"
         style="clip-rule:evenodd" /></clipPath><clipPath
       clipPathUnits="userSpaceOnUse"
       id="clipPath1867"><path
         d="m 373.6999,160.1233 h 169 v 148 h -169 z"
         id="path1865"
         inkscape:connector-curvature="0" /></clipPath><clipPath
       clipPathUnits="userSpaceOnUse"
       id="clipPath1883"><path
         d="M 373.6999,308.1233 H 542.7 v -148 H 373.6999 Z"
         id="path1881"
         inkscape:connector-curvature="0" /></clipPath><clipPath
       clipPathUnits="userSpaceOnUse"
       id="clipPath1889"><path
         d="m 373.6999,160.1233 h 169 v 148 h -169 z"
         id="path1887"
         inkscape:connector-curvature="0" /></clipPath><clipPath
       clipPathUnits="userSpaceOnUse"
       id="clipPath1883-9"><path
         d="M 373.6999,308.1233 H 542.7 v -148 H 373.6999 Z"
         id="path1881-2"
         inkscape:connector-curvature="0" /></clipPath><clipPath
       clipPathUnits="userSpaceOnUse"
       id="clipPath1889-8"><path
         d="m 373.6999,160.1233 h 169 v 148 h -169 z"
         id="path1887-4"
         inkscape:connector-curvature="0" /></clipPath><clipPath
       clipPathUnits="userSpaceOnUse"
       id="clipPath1855-1"><path
         d="M 373.6999,308.1233 H 542.7 v -148 H 373.6999 Z"
         id="path1853-4"
         inkscape:connector-curvature="0" /></clipPath><clipPath
       clipPathUnits="userSpaceOnUse"
       id="clipPath1861-3"><path
         d="m 373.6999,307.6603 h 168.959 v -144.479 h -168.959 z"
         id="path1859-4"
         inkscape:connector-curvature="0"
         style="clip-rule:evenodd" /></clipPath><clipPath
       clipPathUnits="userSpaceOnUse"
       id="clipPath1867-8"><path
         d="m 373.6999,160.1233 h 169 v 148 h -169 z"
         id="path1865-3"
         inkscape:connector-curvature="0" /></clipPath><clipPath
       clipPathUnits="userSpaceOnUse"
       id="clipPath1833-6"><path
         d="M 373.6999,308.1233 H 542.7 v -148 H 373.6999 Z"
         id="path1831-1"
         inkscape:connector-curvature="0" /></clipPath><clipPath
       clipPathUnits="userSpaceOnUse"
       id="clipPath1839-5"><path
         d="m 373.6999,160.1233 h 169 v 148 h -169 z"
         id="path1837-5"
         inkscape:connector-curvature="0" /></clipPath></defs><sodipodi:namedview
     pagecolor="#ffffff"
     bordercolor="#666666"
     borderopacity="1"
     objecttolerance="10"
     gridtolerance="10"
     guidetolerance="10"
     inkscape:pageopacity="0"
     inkscape:pageshadow="2"
     inkscape:window-width="1920"
     inkscape:window-height="1017"
     id="namedview817"
     showgrid="false"
     fit-margin-top="0"
     fit-margin-left="0"
     fit-margin-right="0"
     fit-margin-bottom="0"
     inkscape:zoom="1.5106887"
     inkscape:cx="21.174625"
     inkscape:cy="94.005607"
     inkscape:window-x="1912"
     inkscape:window-y="-8"
     inkscape:window-maximized="1"
     inkscape:current-layer="g823" /><g
     id="g823"
     inkscape:groupmode="layer"
     inkscape:label="A 8"
     transform="matrix(1.3333333,0,0,-1.3333333,-170.7127,697.15082)"><g
       transform="translate(-245.66837,215.20283)"
       id="g1827"><g
         id="g1829"
         clip-path="url(#clipPath1833-6)"><g
           id="g1835"
           clip-path="url(#clipPath1839-5)"><g
             id="g1841"
             transform="translate(373.6999,160.1233)"><path
               d="m 58.10501,133.484 v 0 c 12.63898,0 23.03998,-11.061 23.03998,-24.5 V 72.54401 c 0,-13.44001 -10.401,-24.5 -23.03998,-24.5 -12.638,0 -23.04001,11.05999 -23.04001,24.5 V 108.984 c 0,13.439 10.40201,24.5 23.04001,24.5 z"
               style="fill:none;stroke:#383933;stroke-width:0.5;stroke-linecap:butt;stroke-linejoin:miter;stroke-miterlimit:14.30000019;stroke-dasharray:none;stroke-opacity:1"
               id="path1843"
               inkscape:connector-curvature="0" /></g><g
             id="g1845"
             transform="translate(373.6999,160.1233)"><path
               d="M 43.70499,116.204 H 71.54501 M 43.70499,62.444 h 27.84002"
               style="fill:none;stroke:#383933;stroke-width:2;stroke-linecap:square;stroke-linejoin:bevel;stroke-miterlimit:14.30000019;stroke-dasharray:none;stroke-opacity:1"
               id="path1847"
               inkscape:connector-curvature="0" /></g></g></g></g><g
       transform="translate(-245.66837,215.20283)"
       id="g1849"><g
         id="g1851"
         clip-path="url(#clipPath1855-1)"><g
           id="g1857"
           clip-path="url(#clipPath1861-3)"><g
             id="g1863"
             clip-path="url(#clipPath1867-8)"><g
               id="g1869"
               transform="translate(373.6999,160.1233)"><path
                 d="m 139.705,91.24301 v 0 c 0,-6.358 -5.16,-11.51901 -11.519,-11.51901 -6.36,0 -11.52,5.16101 -11.52,11.51901 0,6.35898 5.16,11.52099 11.52,11.52099 6.359,0 11.519,-5.16201 11.519,-11.52099 z"
                 style="fill:none;stroke:#383933;stroke-width:1;stroke-linecap:butt;stroke-linejoin:round;stroke-miterlimit:14.30000019;stroke-dasharray:none;stroke-opacity:1"
                 id="path1871"
                 inkscape:connector-curvature="0" /></g><g
               id="g1873"
               transform="translate(373.6999,160.1233)"><path
                 d="m 58.45999,116.317 v 30.72 H 128.541 V 33.757 H 58.45999 v 28.801"
                 style="fill:none;stroke:#383933;stroke-width:1;stroke-linecap:square;stroke-linejoin:bevel;stroke-miterlimit:14.30000019;stroke-dasharray:none;stroke-opacity:1"
                 id="path1875"
                 inkscape:connector-curvature="0" /></g></g></g></g></g><g
       transform="translate(-245.66837,215.20283)"
       id="g1877"><g
         id="g1879"
         clip-path="url(#clipPath1883-9)"><g
           id="g1885"
           clip-path="url(#clipPath1889-8)"><path
             d="m 482.6839,194.7273 v 0 c 0,-6.359 -5.16,-11.521 -11.519,-11.521 -6.36,0 -11.52,5.162 -11.52,11.521 0,6.358 5.16,11.52 11.52,11.52 6.359,0 11.519,-5.162 11.519,-11.52"
             style="fill:#ffffff;fill-opacity:1;fill-rule:evenodd;stroke:none"
             id="path1891"
             inkscape:connector-curvature="0" /><g
             id="g1893"
             transform="translate(373.6999,160.1233)"><path
               d="m 108.984,34.604 v 0 c 0,-6.359 -5.16,-11.52099 -11.519,-11.52099 -6.35999,0 -11.51999,5.16199 -11.51999,11.52099 0,6.35801 5.16,11.51999 11.51999,11.51999 6.359,0 11.519,-5.16198 11.519,-11.51999 z"
               style="fill:none;stroke:#383933;stroke-width:1;stroke-linecap:butt;stroke-linejoin:round;stroke-miterlimit:14.30000019;stroke-dasharray:none;stroke-opacity:1"
               id="path1895"
               inkscape:connector-curvature="0" /></g><g
             id="g1897"
             transform="translate(373.6999,160.1233)"><text
               transform="matrix(1,0,0,-1,88.8208,30.553)"
               style="font-variant:normal;font-weight:normal;font-size:14px;font-family:Helvetica;-inkscape-font-specification:Helvetica;writing-mode:lr-tb;fill:#383933;fill-opacity:1;fill-rule:nonzero;stroke:none"
               id="text1901"><tspan
                 x="0 7.7867999"
                 y="0"
                 sodipodi:role="line"
                 id="tspan1899">nA</tspan></text>
</g><g
             id="g1903"
             transform="translate(373.6999,160.1233)"><text
               transform="matrix(1,0,0,-1,157.9374,84.3102)"
               style="font-variant:normal;font-weight:normal;font-size:14px;font-family:Helvetica;-inkscape-font-specification:Helvetica;writing-mode:lr-tb;fill:#383933;fill-opacity:1;fill-rule:nonzero;stroke:none"
               id="text1907"><tspan
                 x="0"
                 y="0"
                 id="tspan1905">U</tspan></text>
</g><g
             id="g1909"
             transform="translate(373.6999,160.1233)"><text
               transform="matrix(1,0,0,-1,132.0234,67.02859)"
               style="font-variant:normal;font-weight:bold;font-size:14px;font-family:Helvetica;-inkscape-font-specification:Helvetica-Bold;writing-mode:lr-tb;fill:#383933;fill-opacity:1;fill-rule:nonzero;stroke:none"
               id="text1913"><tspan
                 x="0"
                 y="0"
                 id="tspan1911">+</tspan></text>
</g><g
             id="g1915"
             transform="translate(373.6999,160.1233)"><text
               transform="matrix(1,0,0,-1,133.9456,105.4194)"
               style="font-variant:normal;font-weight:bold;font-size:14px;font-family:Helvetica;-inkscape-font-specification:Helvetica-Bold;writing-mode:lr-tb;fill:#383933;fill-opacity:1;fill-rule:nonzero;stroke:none"
               id="text1919"><tspan
                 x="0"
                 y="0"
                 id="tspan1917">-</tspan></text>
</g><path
             d="m 524.6749,262.8703 h 0.5 v -38.633 h -0.5 z"
             style="fill:#383933;fill-opacity:1;fill-rule:nonzero;stroke:none"
             id="path1921"
             inkscape:connector-curvature="0" /><path
             d="m 521.335,262.6203 3.5899,9.867 3.591,-9.867 h -7.1809"
             style="fill:#383933;fill-opacity:1;fill-rule:evenodd;stroke:none"
             id="path1923"
             inkscape:connector-curvature="0" /><g
             id="g1925"
             transform="translate(373.6999,160.1233)"><text
               transform="matrix(1,0,0,-1,88.8208,9.428)"
               style="font-variant:normal;font-weight:normal;font-size:14px;font-family:Helvetica;-inkscape-font-specification:Helvetica;writing-mode:lr-tb;fill:#383933;fill-opacity:1;fill-rule:nonzero;stroke:none"
               id="text1929"><tspan
                 x="0"
                 y="0"
                 id="tspan1927">I</tspan></text>
</g><g
             id="g1931"
             transform="translate(373.6999,160.1233)"><text
               transform="matrix(1,0,0,-1,92.7036,5.771)"
               style="font-variant:normal;font-weight:normal;font-size:12px;font-family:Helvetica;-inkscape-font-specification:Helvetica;writing-mode:lr-tb;fill:#383933;fill-opacity:1;fill-rule:nonzero;stroke:none"
               id="text1935"><tspan
                 x="0 6.6743999"
                 y="0"
                 sodipodi:role="line"
                 id="tspan1933">ph</tspan></text>
</g><g
             id="g1937"
             transform="translate(373.6999,160.1233)"><path
               d="m 71.54501,75.40401 v 0 c 0,-2.386 -1.93499,-4.321 -4.32,-4.321 -2.38501,0 -4.32001,1.935 -4.32001,4.321 0,2.38499 1.935,4.31999 4.32001,4.31999 2.38501,0 4.32,-1.935 4.32,-4.31999 z"
               style="fill:none;stroke:#383933;stroke-width:1;stroke-linecap:butt;stroke-linejoin:round;stroke-miterlimit:14.30000019;stroke-dasharray:none;stroke-opacity:1"
               id="path1939"
               inkscape:connector-curvature="0" /></g><g
             id="g1941"
             transform="translate(373.6999,160.1233)"><path
               d="m 64.82501,75.884 h 5.75998"
               style="fill:none;stroke:#383933;stroke-width:1;stroke-linecap:square;stroke-linejoin:bevel;stroke-miterlimit:14.30000019;stroke-dasharray:none;stroke-opacity:1"
               id="path1943"
               inkscape:connector-curvature="0" /></g><path
             d="m 432.5149,257.6853 h 0.5 v -11.369 h -0.5 z"
             style="fill:#383933;fill-opacity:1;fill-rule:nonzero;stroke:none"
             id="path1945"
             inkscape:connector-curvature="0" /><path
             d="m 432.7649,264.8073 -1.457,-7.372 h 2.914 l -1.457,7.372"
             style="fill:#383933;fill-opacity:1;fill-rule:evenodd;stroke:none"
             id="path1947"
             inkscape:connector-curvature="0" /><g
             id="g1949"
             transform="translate(373.6999,160.1233)"><path
               d="m 59.065,104.684 -1.457,-7.37199 h 2.914 z"
               style="fill:none;stroke:#383933;stroke-width:0.03;stroke-linecap:butt;stroke-linejoin:miter;stroke-miterlimit:11.5;stroke-dasharray:none;stroke-opacity:1"
               id="path1951"
               inkscape:connector-curvature="0" /></g><g
             id="g1953"
             transform="translate(373.6999,160.1233)"><path
               d="m 52.345,69.64301 v 0 c 0,-2.38401 -1.935,-4.32001 -4.32001,-4.32001 -2.384,0 -4.32,1.936 -4.32,4.32001 0,2.38499 1.936,4.32099 4.32,4.32099 2.38501,0 4.32001,-1.936 4.32001,-4.32099 z"
               style="fill:none;stroke:#383933;stroke-width:1;stroke-linecap:butt;stroke-linejoin:round;stroke-miterlimit:14.30000019;stroke-dasharray:none;stroke-opacity:1"
               id="path1955"
               inkscape:connector-curvature="0" /></g><g
             id="g1957"
             transform="translate(373.6999,160.1233)"><path
               d="m 44.66501,70.12399 h 5.76001"
               style="fill:none;stroke:#383933;stroke-width:1;stroke-linecap:square;stroke-linejoin:bevel;stroke-miterlimit:14.30000019;stroke-dasharray:none;stroke-opacity:1"
               id="path1959"
               inkscape:connector-curvature="0" /></g><g
             id="g1961"
             transform="translate(373.6999,160.1233)"><path
               d="m 68.66501,109.004 v 0 c 0,-2.385 -1.935,-4.32 -4.32001,-4.32 -2.38501,0 -4.32001,1.935 -4.32001,4.32 0,2.384 1.935,4.32 4.32001,4.32 2.38501,0 4.32001,-1.936 4.32001,-4.32 z"
               style="fill:none;stroke:#383933;stroke-width:1;stroke-linecap:butt;stroke-linejoin:round;stroke-miterlimit:14.30000019;stroke-dasharray:none;stroke-opacity:1"
               id="path1963"
               inkscape:connector-curvature="0" /></g><g
             id="g1965"
             transform="translate(373.6999,160.1233)"><path
               d="m 61.94501,108.524 h 5.75998"
               style="fill:none;stroke:#383933;stroke-width:1;stroke-linecap:square;stroke-linejoin:bevel;stroke-miterlimit:14.30000019;stroke-dasharray:none;stroke-opacity:1"
               id="path1967"
               inkscape:connector-curvature="0" /></g><path
             d="m 420.9949,245.2053 h 0.5 v -10.409 h -0.5 z"
             style="fill:#383933;fill-opacity:1;fill-rule:nonzero;stroke:none"
             id="path1969"
             inkscape:connector-curvature="0" /><path
             d="m 421.2449,252.3263 1.457,-7.371 h -2.914 l 1.457,7.371"
             style="fill:#383933;fill-opacity:1;fill-rule:evenodd;stroke:none"
             id="path1971"
             inkscape:connector-curvature="0" /><g
             id="g1973"
             transform="translate(373.6999,160.1233)"><path
               d="m 47.54501,92.203 1.457,-7.371 h -2.914 z"
               style="fill:none;stroke:#383933;stroke-width:0.03;stroke-linecap:butt;stroke-linejoin:miter;stroke-miterlimit:11.5;stroke-dasharray:none;stroke-opacity:1"
               id="path1975"
               inkscape:connector-curvature="0" /></g><path
             d="m 441.1549,247.1253 h 0.5 v -6.569 h -0.5 z"
             style="fill:#383933;fill-opacity:1;fill-rule:nonzero;stroke:none"
             id="path1977"
             inkscape:connector-curvature="0" /><path
             d="m 441.4049,254.2463 1.457,-7.371 h -2.914 l 1.457,7.371"
             style="fill:#383933;fill-opacity:1;fill-rule:evenodd;stroke:none"
             id="path1979"
             inkscape:connector-curvature="0" /><g
             id="g1981"
             transform="translate(373.6999,160.1233)"><path
               d="m 67.70499,94.123 1.45703,-7.37099 h -2.914 z"
               style="fill:none;stroke:#383933;stroke-width:0.03;stroke-linecap:butt;stroke-linejoin:miter;stroke-miterlimit:11.5;stroke-dasharray:none;stroke-opacity:1"
               id="path1983"
               inkscape:connector-curvature="0" /></g><path
             d="m 421.4489,268.8613 0.498,-0.036 -0.47,-6.585 -0.499,0.035 0.471,6.586"
             style="fill:#383933;fill-opacity:1;fill-rule:nonzero;stroke:none"
             id="path1985"
             inkscape:connector-curvature="0" /><path
             d="m 422.2049,275.9473 -1.978,-7.249 2.906,-0.208 -0.928,7.457"
             style="fill:#383933;fill-opacity:1;fill-rule:evenodd;stroke:none"
             id="path1987"
             inkscape:connector-curvature="0" /><g
             id="g1989"
             transform="translate(373.6999,160.1233)"><path
               d="m 48.505,115.824 -1.97799,-7.249 2.906,-0.208 z"
               style="fill:none;stroke:#383933;stroke-width:0.03;stroke-linecap:butt;stroke-linejoin:miter;stroke-miterlimit:11.5;stroke-dasharray:none;stroke-opacity:1"
               id="path1991"
               inkscape:connector-curvature="0" /></g><path
             d="m 426.0449,262.4073 v 0 c 0,-2.385 -1.935,-4.32 -4.32,-4.32 -2.384,0 -4.32,1.935 -4.32,4.32 0,2.384 1.936,4.319 4.32,4.319 2.385,0 4.32,-1.935 4.32,-4.319"
             style="fill:#ffffff;fill-opacity:1;fill-rule:evenodd;stroke:none"
             id="path1993"
             inkscape:connector-curvature="0" /><g
             id="g1995"
             transform="translate(373.6999,160.1233)"><path
               d="m 52.345,102.284 v 0 c 0,-2.38501 -1.935,-4.32001 -4.32001,-4.32001 -2.384,0 -4.32,1.935 -4.32,4.32001 0,2.384 1.936,4.319 4.32,4.319 2.38501,0 4.32001,-1.935 4.32001,-4.319 z"
               style="fill:none;stroke:#383933;stroke-width:1;stroke-linecap:butt;stroke-linejoin:round;stroke-miterlimit:14.30000019;stroke-dasharray:none;stroke-opacity:1"
               id="path1997"
               inkscape:connector-curvature="0" /></g><g
             id="g1999"
             transform="translate(373.6999,160.1233)"><path
               d="m 45.625,101.804 h 5.76001"
               style="fill:none;stroke:#383933;stroke-width:1;stroke-linecap:square;stroke-linejoin:bevel;stroke-miterlimit:14.30000019;stroke-dasharray:none;stroke-opacity:1"
               id="path2001"
               inkscape:connector-curvature="0" /></g><path
             d="m 398.1719,248.0923 0.006,-0.004 0.582,-0.439 -0.301,-0.399 -0.582,0.439 z m -0.528,0.376 0.006,-0.005 0.522,-0.371 -0.289,-0.408 -0.522,0.372 z m -0.505,0.335 0.008,-0.005 0.497,-0.33 -0.277,-0.417 -0.497,0.33 z m -0.482,0.295 0.009,-0.006 0.473,-0.289 -0.261,-0.427 -0.472,0.289 z m -0.459,0.253 0.011,-0.005 0.448,-0.248 -0.242,-0.438 -0.448,0.249 z m -0.437,0.215 0.014,-0.007 0.423,-0.208 -0.22,-0.448 -0.423,0.208 z m -0.415,0.173 0.016,-0.006 0.399,-0.167 -0.193,-0.462 -0.399,0.168 z m -0.543,-0.344 0.167,0.471 0.376,-0.127 -0.161,-0.473 -0.375,0.126 z m -0.704,0.265 0.213,0.451 0.665,-0.247 -0.174,-0.469 -0.665,0.247 z m -0.584,0.347 0.295,0.4 0.541,-0.314 -0.252,-0.433 -0.54,0.315 z m -0.457,0.43 0.378,0.321 0.417,-0.383 -0.338,-0.368 -0.417,0.383 z m -0.322,0.51 0.447,0.214 0.294,-0.451 -0.419,-0.273 -0.295,0.452 z m -0.183,0.579 0.487,0.098 0.171,-0.521 -0.475,-0.156 -0.171,0.521 z m -0.048,0.639 0.498,-0.007 0.049,-0.592 -0.499,-0.04 -0.048,0.59 z m 0.081,0.699 0.49,-0.093 -0.074,-0.662 -0.497,0.056 0.074,0.662 z m 0.196,0.735 0.483,-0.131 -0.196,-0.733 -0.483,0.129 0.195,0.733 z m 0.683,0.61 -0.008,-0.038 -0.193,-0.704 -0.482,0.132 0.193,0.705 z m 0.065,0.638 10e-4,-0.063 -0.066,-0.575 -0.497,0.057 0.066,0.575 z m -0.095,0.54 0.034,-0.094 0.061,-0.446 -0.495,-0.068 -0.062,0.446 z m -0.276,0.405 0.087,-0.087 0.189,-0.318 -0.429,-0.256 -0.189,0.318 z m -0.412,0.222 0.095,-0.033 0.317,-0.189 -0.256,-0.43 -0.318,0.19 z m -0.508,0.062 0.062,-10e-4 0.446,-0.061 -0.068,-0.495 -0.446,0.061 z m -0.614,-0.073 0.038,0.008 0.576,0.065 0.057,-0.497 -0.576,-0.065 z m -0.572,-0.675 -0.132,0.482 0.704,0.193 0.133,-0.482 z m -0.743,-0.201 -0.094,0.49 0.705,0.193 0.132,-0.482 -0.705,-0.193 z m -0.638,-0.065 0.006,0.496 0.576,0.066 0.056,-0.497 -0.575,-0.066 z m -0.54,0.095 0.162,0.462 0.447,-0.061 -0.069,-0.496 -0.446,0.062 z m -0.404,0.276 0.343,0.343 0.317,-0.19 -0.256,-0.429 -0.318,0.19 z m -0.223,0.412 0.463,0.162 0.189,-0.318 -0.429,-0.256 -0.19,0.318 z m -0.062,0.509 0.496,0.005 0.061,-0.446 -0.495,-0.068 -0.061,0.446 z m 0.073,0.613 0.49,-0.095 -0.066,-0.575 -0.497,0.057 0.066,0.575 z m 0.193,0.705 0.483,-0.133 -0.194,-0.704 -0.482,0.132 z m 0.683,0.61 -0.007,-0.038 -0.193,-0.705 -0.483,0.133 0.193,0.704 z m 0.065,0.638 10e-4,-0.063 -0.066,-0.575 -0.497,0.057 0.066,0.575 z m -0.094,0.54 0.032,-0.094 0.062,-0.446 -0.495,-0.069 -0.062,0.447 z m -0.277,0.405 0.087,-0.087 0.19,-0.318 -0.43,-0.256 -0.189,0.318 z m -0.411,0.222 0.093,-0.033 0.318,-0.189 -0.256,-0.43 -0.317,0.19 z m -0.509,0.062 h 0.062 l 0.447,-0.062 -0.069,-0.495 -0.446,0.061 z m -0.613,-0.073 0.037,0.007 0.576,0.066 0.056,-0.496 -0.575,-0.066 z m -0.705,-0.193 v 0 l 0.705,0.193 0.132,-0.482 -0.705,-0.193 z m -0.61,-0.683 -0.095,0.49 0.705,0.193 0.132,-0.482 -0.705,-0.193 z m -0.639,-0.065 0.006,0.496 0.575,0.066 0.058,-0.497 -0.576,-0.065 z m -0.54,0.095 0.162,0.462 0.447,-0.061 -0.069,-0.496 -0.446,0.062 z m -0.404,0.276 0.342,0.342 0.318,-0.189 -0.256,-0.429 -0.317,0.189 z m -0.223,0.411 0.463,0.163 0.189,-0.318 -0.429,-0.256 -0.19,0.318 z m -0.062,0.51 0.496,0.006 0.062,-0.447 -0.496,-0.069 -0.061,0.447 z m 0.073,0.612 0.489,-0.094 -0.066,-0.576 -0.496,0.058 0.066,0.575 z m 0.193,0.706 0.483,-0.133 -0.193,-0.704 -0.483,0.131 z m 0.683,0.61 -0.007,-0.038 -0.193,-0.705 -0.483,0.133 0.193,0.704 z m 0.065,0.638 0.001,-0.063 -0.066,-0.575 -0.497,0.056 0.066,0.576 z m -0.095,0.54 0.034,-0.094 0.061,-0.446 -0.495,-0.068 -0.062,0.446 z m -0.276,0.404 0.087,-0.086 0.189,-0.318 -0.429,-0.256 -0.189,0.318 z m -0.411,0.223 0.094,-0.033 0.317,-0.19 -0.256,-0.429 -0.317,0.19 z m -0.509,0.062 h 0.063 l 0.446,-0.062 -0.068,-0.496 -0.447,0.062 z m -0.613,-0.073 0.037,0.007 0.576,0.066 0.057,-0.497 -0.576,-0.066 z m -0.573,-0.675 -0.132,0.482 0.705,0.193 0.132,-0.482 z m -0.743,-0.201 -0.094,0.49 0.705,0.193 0.132,-0.482 -0.705,-0.193 z m -0.637,-0.065 0.005,0.496 0.576,0.066 0.056,-0.497 -0.575,-0.066 z m -0.541,0.095 0.162,0.462 0.447,-0.062 -0.068,-0.495 -0.447,0.062 z m -0.404,0.276 0.343,0.343 0.317,-0.19 -0.256,-0.429 -0.318,0.189 z m -0.223,0.412 0.463,0.162 0.189,-0.318 -0.429,-0.256 -0.19,0.318 z m -0.062,0.508 0.496,0.006 0.062,-0.446 -0.496,-0.068 -0.061,0.446 z m 0.073,0.614 0.49,-0.095 -0.066,-0.575 -0.497,0.056 0.066,0.576 z m 0.193,0.704 0.483,-0.132 -0.194,-0.705 -0.482,0.133 z m 0.683,0.611 -0.007,-0.038 -0.193,-0.705 -0.483,0.132 0.194,0.705 z m 0.065,0.638 10e-4,-0.063 -0.066,-0.575 -0.497,0.057 0.066,0.575 z m -0.094,0.54 0.032,-0.094 0.062,-0.446 -0.495,-0.069 -0.062,0.447 z m -0.277,0.405 0.087,-0.087 0.19,-0.318 -0.43,-0.256 -0.19,0.318 z m -0.411,0.222 0.094,-0.033 0.317,-0.189 -0.256,-0.43 -0.318,0.189 z m -0.509,0.062 0.062,-10e-4 0.447,-0.061 -0.069,-0.495 -0.446,0.061 z m -0.613,-0.073 0.037,0.007 0.576,0.066 0.056,-0.497 -0.575,-0.066 z m -0.574,-0.676 -0.131,0.483 0.705,0.193 0.132,-0.482 -0.705,-0.193 z m -0.411,-0.108 -0.098,0.489 0.379,0.102 0.13,-0.483 -0.379,-0.101 z m -0.403,-0.051 -0.031,0.497 0.368,0.049 0.066,-0.495 -0.368,-0.049 z m -0.394,0.006 0.042,0.497 0.357,-0.003 -0.005,-0.5 -0.357,0.003 z m -0.383,0.066 0.118,0.484 0.345,-0.056 -0.08,-0.494 -0.345,0.057 z m -0.368,0.123 0.19,0.461 0.334,-0.109 -0.156,-0.475 -0.334,0.109 z m -0.353,0.181 0.255,0.429 0.322,-0.163 -0.224,-0.447 -0.323,0.163 z m -0.336,0.235 0.308,0.392 0.312,-0.216 -0.284,-0.411 -0.312,0.216 z m -0.321,0.288 0.353,0.354 0.301,-0.27 -0.333,-0.372 -0.301,0.269 z m -0.305,0.341 0.386,0.316 0.291,-0.323 -0.372,-0.334 -0.29,0.323 z m -0.291,0.392 0.412,0.282 0.28,-0.376 -0.401,-0.298 -0.28,0.376 z m -0.278,0.445 0.432,0.251 0.27,-0.43 -0.424,-0.266 -0.27,0.43 z m -0.266,0.496 0.448,0.223 0.258,-0.483 -0.44,-0.236 -0.259,0.483 z m -0.253,0.549 0.458,0.199 0.249,-0.538 -0.454,-0.21 -0.249,0.538 z m -0.243,0.602 0.468,0.177 0.238,-0.591 -0.463,-0.188 -0.239,0.592 z m -0.232,0.654 0.475,0.158 0.228,-0.645 -0.471,-0.167 -0.229,0.645 z m -0.293,0.938 0.477,0.15 0.293,-0.939 -0.477,-0.149 -0.293,0.938"
             style="fill:#383933;fill-opacity:1;fill-rule:nonzero;stroke:none"
             id="path2003"
             inkscape:connector-curvature="0" /><path
             d="m 403.8849,242.6713 -6.243,4.183 2.06,2.06 4.183,-6.243"
             style="fill:#383933;fill-opacity:1;fill-rule:evenodd;stroke:none"
             id="path2005"
             inkscape:connector-curvature="0" /><g
             id="g2007"
             transform="translate(373.6999,160.1233)"><path
               d="m 30.185,82.548 -6.24301,4.183 2.06002,2.06002 z"
               style="fill:none;stroke:#383933;stroke-width:0.03;stroke-linecap:butt;stroke-linejoin:miter;stroke-miterlimit:11.5;stroke-dasharray:none;stroke-opacity:1"
               id="path2009"
               inkscape:connector-curvature="0" /></g><path
             d="m 412.1189,244.2523 0.005,-0.004 0.582,-0.439 -0.3,-0.399 -0.582,0.438 z m -0.529,0.376 0.006,-0.005 0.523,-0.371 -0.29,-0.407 -0.522,0.371 z m -0.505,0.335 0.008,-0.005 0.497,-0.33 -0.276,-0.417 -0.498,0.33 z m -0.481,0.294 0.009,-0.005 0.472,-0.289 -0.261,-0.427 -0.472,0.29 z m -0.459,0.255 0.011,-0.006 0.448,-0.249 -0.243,-0.437 -0.448,0.249 z m -0.437,0.213 0.013,-0.005 0.424,-0.208 -0.221,-0.449 -0.423,0.207 z m -0.416,0.174 0.016,-0.006 0.4,-0.168 -0.194,-0.46 -0.399,0.167 z m -0.543,-0.344 0.167,0.471 0.376,-0.127 -0.16,-0.473 -0.376,0.127 z m -0.703,0.266 0.213,0.45 0.665,-0.247 -0.175,-0.469 -0.665,0.247 z m -0.584,0.346 0.295,0.4 0.54,-0.314 -0.251,-0.432 -0.541,0.314 z m -0.458,0.43 0.379,0.321 0.417,-0.383 -0.338,-0.368 -0.417,0.382 z m -0.322,0.51 0.447,0.215 0.294,-0.452 -0.419,-0.273 -0.294,0.452 z m -0.183,0.578 0.487,0.099 0.171,-0.521 -0.475,-0.156 -0.171,0.521 z m -0.048,0.64 0.499,-0.008 0.048,-0.591 -0.499,-0.041 -0.048,0.592 z m 0.082,0.698 0.489,-0.092 -0.073,-0.662 -0.498,0.056 0.075,0.662 z m 0.195,0.736 0.483,-0.131 -0.196,-0.734 -0.482,0.129 0.195,0.734 z m 0.683,0.61 -0.007,-0.038 -0.193,-0.705 -0.483,0.133 0.194,0.704 z m 0.065,0.638 10e-4,-0.063 -0.066,-0.575 -0.497,0.057 0.066,0.575 z m -0.094,0.54 0.033,-0.093 0.061,-0.447 -0.495,-0.068 -0.062,0.446 z m -0.276,0.404 0.086,-0.086 0.19,-0.318 -0.43,-0.256 -0.189,0.318 z m -0.412,0.223 0.094,-0.033 0.318,-0.19 -0.257,-0.429 -0.317,0.19 z m -0.509,0.063 0.062,-0.001 0.447,-0.062 -0.068,-0.495 -0.447,0.062 z m -0.613,-0.074 0.038,0.007 0.575,0.067 0.057,-0.497 -0.576,-0.066 z m -0.573,-0.675 -0.132,0.482 0.705,0.193 0.132,-0.482 z m -0.742,-0.201 -0.095,0.49 0.705,0.193 0.132,-0.482 -0.705,-0.193 z m -0.638,-0.064 0.005,0.495 0.576,0.066 0.057,-0.497 -0.576,-0.065 z m -0.541,0.094 0.163,0.462 0.446,-0.061 -0.068,-0.495 -0.447,0.061 z m -0.404,0.276 0.343,0.343 0.318,-0.19 -0.257,-0.429 -0.317,0.189 z m -0.223,0.412 0.463,0.162 0.189,-0.318 -0.429,-0.256 -0.189,0.317 z m -0.062,0.509 0.496,0.005 0.062,-0.446 -0.496,-0.068 -0.061,0.446 z m 0.074,0.613 0.489,-0.095 -0.066,-0.575 -0.497,0.057 0.066,0.575 z m 0.193,0.704 0.482,-0.131 -0.193,-0.705 -0.482,0.132 z m 0.682,0.611 -0.007,-0.038 -0.193,-0.704 -0.482,0.131 0.193,0.705 z m 0.066,0.638 v -0.063 l -0.066,-0.575 -0.496,0.057 0.066,0.575 z m -0.095,0.54 0.033,-0.094 0.062,-0.446 -0.496,-0.068 -0.062,0.446 z m -0.276,0.405 0.086,-0.087 0.19,-0.318 -0.43,-0.256 -0.189,0.318 z m -0.412,0.222 0.094,-0.033 0.318,-0.189 -0.256,-0.43 -0.318,0.189 z m -0.509,0.062 0.063,-0.001 0.446,-0.061 -0.068,-0.495 -0.447,0.061 z m -0.613,-0.073 0.037,0.007 0.576,0.066 0.057,-0.497 -0.575,-0.066 z m -0.705,-0.193 v 0 l 0.705,0.193 0.132,-0.482 -0.705,-0.193 z m -0.61,-0.682 -0.095,0.489 0.705,0.193 0.132,-0.482 -0.705,-0.194 z m -0.638,-0.066 0.006,0.496 0.575,0.066 0.057,-0.496 -0.575,-0.067 z m -0.54,0.095 0.162,0.462 0.446,-0.062 -0.068,-0.495 -0.447,0.062 z m -0.405,0.276 0.343,0.343 0.318,-0.19 -0.256,-0.429 -0.318,0.189 z m -0.222,0.411 0.462,0.163 0.19,-0.318 -0.43,-0.256 -0.19,0.318 z m -0.063,0.51 0.496,0.005 0.062,-0.446 -0.495,-0.069 -0.062,0.447 z m 0.074,0.613 0.489,-0.095 -0.066,-0.575 -0.497,0.057 0.066,0.575 z m 0.193,0.705 0.482,-0.133 -0.193,-0.704 -0.482,0.132 z m 0.682,0.61 -0.007,-0.038 -0.193,-0.705 -0.482,0.133 0.193,0.704 z m 0.065,0.638 10e-4,-0.063 -0.066,-0.575 -0.497,0.057 0.066,0.575 z m -0.094,0.54 0.033,-0.094 0.061,-0.446 -0.495,-0.069 -0.061,0.447 z m -0.276,0.405 0.087,-0.087 0.189,-0.318 -0.43,-0.256 -0.189,0.318 z m -0.412,0.222 0.094,-0.033 0.318,-0.189 -0.256,-0.43 -0.318,0.19 z m -0.509,0.062 h 0.063 l 0.446,-0.062 -0.068,-0.495 -0.446,0.061 z m -0.613,-0.073 0.038,0.007 0.575,0.066 0.057,-0.496 -0.575,-0.066 z m -0.573,-0.675 -0.132,0.482 0.705,0.193 0.132,-0.482 z m -0.742,-0.201 -0.095,0.49 0.705,0.193 0.132,-0.482 -0.704,-0.193 z m -0.638,-0.065 0.006,0.496 0.575,0.066 0.057,-0.497 -0.576,-0.065 z m -0.541,0.095 0.163,0.462 0.446,-0.061 -0.068,-0.496 -0.446,0.062 z m -0.404,0.276 0.343,0.342 0.318,-0.189 -0.257,-0.429 -0.317,0.189 z m -0.222,0.412 0.462,0.162 0.19,-0.318 -0.43,-0.256 -0.189,0.318 z m -0.063,0.508 0.497,0.006 0.061,-0.446 -0.495,-0.068 -0.062,0.446 z m 0.074,0.613 0.489,-0.094 -0.066,-0.576 -0.497,0.057 0.066,0.576 z m 0.193,0.705 0.482,-0.132 -0.193,-0.704 -0.482,0.131 z m 0.682,0.611 -0.007,-0.038 -0.193,-0.705 -0.482,0.132 0.193,0.705 z m 0.066,0.638 v -0.063 l -0.066,-0.575 -0.496,0.056 0.066,0.576 z m -0.095,0.54 0.033,-0.094 0.062,-0.446 -0.496,-0.068 -0.062,0.446 z m -0.276,0.404 0.086,-0.086 0.19,-0.318 -0.429,-0.256 -0.19,0.317 z m -0.412,0.223 0.094,-0.033 0.318,-0.19 -0.256,-0.429 -0.318,0.19 z m -0.509,0.062 0.063,-0.001 0.446,-0.061 -0.068,-0.495 -0.447,0.061 z m -0.613,-0.073 0.038,0.007 0.575,0.066 0.057,-0.497 -0.575,-0.066 z m -0.574,-0.676 -0.131,0.483 0.705,0.193 0.132,-0.482 -0.704,-0.193 z m -0.411,-0.108 -0.098,0.489 0.379,0.102 0.13,-0.483 -0.379,-0.102 z m -0.403,-0.051 -0.031,0.497 0.368,0.05 0.066,-0.496 -0.367,-0.049 z m -0.394,0.006 0.043,0.497 0.356,-0.003 -0.005,-0.5 -0.356,0.003 z m -0.382,0.066 0.118,0.484 0.345,-0.056 -0.081,-0.494 -0.345,0.057 z m -0.369,0.123 0.191,0.462 0.333,-0.11 -0.155,-0.475 -0.334,0.109 z m -0.352,0.181 0.254,0.429 0.323,-0.163 -0.225,-0.447 -0.323,0.163 z m -0.337,0.235 0.309,0.392 0.312,-0.216 -0.284,-0.411 -0.312,0.216 z m -0.32,0.288 0.352,0.354 0.301,-0.269 -0.333,-0.373 -0.301,0.269 z m -0.306,0.34 0.387,0.317 0.29,-0.322 -0.371,-0.335 -0.291,0.322 z m -0.291,0.393 0.413,0.282 0.279,-0.376 -0.401,-0.299 -0.28,0.377 z m -0.278,0.445 0.432,0.25 0.27,-0.429 -0.424,-0.266 -0.269,0.43 z m -0.265,0.496 0.447,0.224 0.259,-0.484 -0.441,-0.236 -0.259,0.483 z m -0.254,0.549 0.458,0.199 0.249,-0.538 -0.453,-0.21 -0.249,0.538 z m -0.243,0.602 0.468,0.177 0.239,-0.592 -0.464,-0.187 -0.239,0.592 z m -0.231,0.654 0.474,0.158 0.229,-0.645 -0.472,-0.167 -0.228,0.645 z m -0.294,0.939 0.478,0.149 0.293,-0.938 -0.477,-0.15 -0.294,0.939"
             style="fill:#383933;fill-opacity:1;fill-rule:nonzero;stroke:none"
             id="path2011"
             inkscape:connector-curvature="0" /><path
             d="m 417.8309,238.8313 -6.243,4.183 2.061,2.06 4.182,-6.243"
             style="fill:#383933;fill-opacity:1;fill-rule:evenodd;stroke:none"
             id="path2013"
             inkscape:connector-curvature="0" /><g
             id="g2015"
             transform="translate(373.6999,160.1233)"><path
               d="m 44.13101,78.70801 -6.24301,4.183 2.06101,2.05999 z"
               style="fill:none;stroke:#383933;stroke-width:0.03;stroke-linecap:butt;stroke-linejoin:miter;stroke-miterlimit:11.5;stroke-dasharray:none;stroke-opacity:1"
               id="path2017"
               inkscape:connector-curvature="0" /></g><path
             d="m 436.6249,227.9333 0.006,-0.004 0.582,-0.44 -0.301,-0.398 -0.582,0.437 z m -0.529,0.375 0.007,-0.004 0.522,-0.371 -0.29,-0.409 -0.522,0.371 z m -0.504,0.335 0.007,-0.005 0.497,-0.33 -0.276,-0.417 -0.497,0.33 z m -0.482,0.295 0.009,-0.006 0.473,-0.289 -0.262,-0.427 -0.472,0.289 z m -0.459,0.254 0.011,-0.006 0.448,-0.248 -0.242,-0.437 -0.448,0.248 z m -0.437,0.213 0.013,-0.006 0.424,-0.207 -0.22,-0.449 -0.424,0.207 z m -0.416,0.174 0.017,-0.006 0.399,-0.168 -0.193,-0.461 -0.4,0.168 z m -0.542,-0.344 0.167,0.471 0.375,-0.127 -0.16,-0.473 -0.376,0.127 z m -0.704,0.266 0.213,0.449 0.665,-0.246 -0.174,-0.469 -0.665,0.246 z m -0.584,0.346 0.295,0.4 0.541,-0.314 -0.252,-0.432 -0.54,0.314 z m -0.457,0.431 0.378,0.321 0.417,-0.383 -0.338,-0.369 -0.417,0.382 z m -0.323,0.51 0.448,0.213 0.293,-0.451 -0.418,-0.272 -0.294,0.451 z m -0.182,0.578 0.487,0.098 0.17,-0.522 -0.475,-0.154 -0.171,0.52 z m -0.048,0.639 0.498,-0.008 0.048,-0.59 -0.498,-0.041 -0.049,0.59 z m 0.081,0.699 0.49,-0.092 -0.074,-0.662 -0.497,0.055 0.074,0.662 z m 0.196,0.734 0.483,-0.13 -0.196,-0.733 -0.483,0.129 0.196,0.732 z m 0.682,0.611 -0.007,-0.038 -0.193,-0.705 -0.482,0.132 0.193,0.705 z m 0.066,0.638 v -0.063 l -0.066,-0.575 -0.496,0.057 0.066,0.575 z m -0.095,0.54 0.033,-0.094 0.062,-0.446 -0.495,-0.069 -0.062,0.447 z m -0.276,0.405 0.087,-0.087 0.189,-0.318 -0.429,-0.256 -0.19,0.318 z m -0.412,0.222 0.094,-0.033 0.318,-0.189 -0.256,-0.43 -0.318,0.19 z m -0.509,0.062 h 0.063 l 0.446,-0.062 -0.068,-0.495 -0.446,0.061 z m -0.613,-0.073 0.038,0.007 0.575,0.066 0.057,-0.496 -0.575,-0.066 z m -0.705,-0.193 v 0 l 0.705,0.193 0.132,-0.482 -0.704,-0.193 z m -0.61,-0.682 -0.094,0.489 0.704,0.193 0.133,-0.482 -0.705,-0.193 z m -0.638,-0.066 0.006,0.496 0.575,0.066 0.057,-0.496 -0.575,-0.066 z m -0.54,0.095 0.162,0.462 0.447,-0.061 -0.069,-0.496 -0.446,0.062 z m -0.405,0.276 0.343,0.343 0.318,-0.19 -0.256,-0.429 -0.318,0.189 z m -0.222,0.411 0.462,0.163 0.19,-0.318 -0.43,-0.256 -0.189,0.318 z m -0.062,0.51 0.496,0.006 0.061,-0.447 -0.495,-0.069 -0.062,0.447 z m 0.073,0.613 0.489,-0.095 -0.066,-0.575 -0.496,0.057 0.066,0.575 z m 0.193,0.705 0.482,-0.133 -0.193,-0.704 -0.482,0.132 z m 0.683,0.61 -0.008,-0.038 -0.193,-0.705 -0.482,0.133 0.193,0.704 z m 0.065,0.638 v -0.063 l -0.065,-0.575 -0.497,0.057 0.066,0.575 z m -0.095,0.54 0.033,-0.094 0.062,-0.446 -0.496,-0.068 -0.061,0.446 z m -0.276,0.404 0.087,-0.086 0.189,-0.318 -0.429,-0.256 -0.189,0.318 z m -0.412,0.223 0.094,-0.033 0.318,-0.19 -0.256,-0.429 -0.318,0.19 z m -0.508,0.062 h 0.062 l 0.446,-0.062 -0.068,-0.495 -0.446,0.061 z m -0.614,-0.073 0.038,0.007 0.576,0.066 0.056,-0.497 -0.575,-0.065 z m -0.572,-0.675 -0.132,0.482 0.704,0.193 0.133,-0.482 z m -0.743,-0.201 -0.094,0.49 0.705,0.193 0.132,-0.482 -0.705,-0.193 z m -0.638,-0.065 0.006,0.496 0.575,0.066 0.057,-0.497 -0.575,-0.065 z m -0.54,0.095 0.162,0.462 0.446,-0.061 -0.068,-0.496 -0.446,0.062 z m -0.404,0.276 0.342,0.343 0.318,-0.19 -0.256,-0.429 -0.318,0.189 z m -0.223,0.412 0.462,0.162 0.19,-0.318 -0.429,-0.256 -0.19,0.317 z m -0.062,0.508 0.496,0.006 0.061,-0.446 -0.495,-0.068 -0.061,0.446 z m 0.073,0.614 0.49,-0.095 -0.066,-0.575 -0.497,0.056 0.065,0.576 z m 0.193,0.704 0.482,-0.131 -0.193,-0.706 -0.482,0.133 z m 0.683,0.611 -0.008,-0.038 -0.193,-0.704 -0.482,0.131 0.193,0.705 z m 0.065,0.638 10e-4,-0.063 -0.066,-0.575 -0.497,0.057 0.066,0.575 z m -0.095,0.54 0.033,-0.094 0.062,-0.446 -0.495,-0.069 -0.062,0.447 z m -0.276,0.405 0.087,-0.087 0.189,-0.318 -0.429,-0.256 -0.19,0.318 z m -0.412,0.222 0.094,-0.033 0.318,-0.189 -0.256,-0.43 -0.318,0.189 z m -0.509,0.062 0.063,-0.001 0.446,-0.061 -0.068,-0.495 -0.446,0.061 z m -0.613,-0.073 0.038,0.007 0.575,0.066 0.057,-0.496 -0.575,-0.067 z m -0.572,-0.675 -0.132,0.482 0.704,0.193 0.133,-0.482 z m -0.743,-0.2 -0.094,0.489 0.705,0.193 0.132,-0.482 -0.705,-0.194 z m -0.638,-0.066 0.006,0.496 0.575,0.066 0.057,-0.496 -0.575,-0.067 z m -0.54,0.095 0.162,0.462 0.447,-0.062 -0.069,-0.495 -0.446,0.062 z m -0.405,0.276 0.343,0.343 0.318,-0.19 -0.256,-0.429 -0.318,0.189 z m -0.222,0.411 0.463,0.162 0.189,-0.317 -0.43,-0.256 -0.189,0.318 z m -0.062,0.51 0.496,0.005 0.061,-0.446 -0.495,-0.069 -0.062,0.447 z m 0.073,0.612 0.489,-0.094 -0.066,-0.575 -0.496,0.057 0.066,0.575 z m 0.193,0.706 0.482,-0.133 -0.193,-0.704 -0.482,0.131 z m 0.683,0.61 -0.008,-0.038 -0.193,-0.705 -0.482,0.133 0.193,0.704 z m 0.065,0.638 v -0.063 l -0.065,-0.575 -0.497,0.057 0.066,0.575 z m -0.095,0.54 0.033,-0.094 0.062,-0.446 -0.496,-0.069 -0.061,0.447 z m -0.276,0.404 0.087,-0.086 0.189,-0.318 -0.429,-0.256 -0.189,0.318 z m -0.411,0.223 0.093,-0.033 0.318,-0.19 -0.256,-0.429 -0.317,0.19 z m -0.51,0.062 h 0.063 l 0.447,-0.062 -0.069,-0.496 -0.446,0.062 z m -0.612,-0.073 0.037,0.007 0.575,0.066 0.058,-0.496 -0.576,-0.066 z m -0.575,-0.675 -0.13,0.482 0.705,0.193 0.132,-0.482 -0.705,-0.193 z m -0.41,-0.109 -0.098,0.489 0.379,0.102 0.129,-0.482 -0.378,-0.103 z m -0.404,-0.052 -0.03,0.499 0.367,0.049 0.067,-0.496 -0.368,-0.049 z m -0.394,0.007 0.043,0.497 0.356,-0.004 -0.005,-0.5 -0.355,0.004 z m -0.382,0.066 0.118,0.484 0.345,-0.056 -0.081,-0.494 -0.345,0.057 z m -0.369,0.124 0.191,0.461 0.333,-0.11 -0.155,-0.475 -0.334,0.11 z m -0.352,0.18 0.254,0.429 0.323,-0.163 -0.225,-0.446 -0.322,0.162 z m -0.337,0.235 0.309,0.392 0.312,-0.216 -0.284,-0.411 -0.312,0.216 z m -0.32,0.288 0.352,0.354 0.302,-0.269 -0.334,-0.373 -0.301,0.269 z m -0.305,0.341 0.386,0.316 0.291,-0.322 -0.372,-0.335 -0.29,0.323 z m -0.291,0.392 0.412,0.282 0.28,-0.376 -0.401,-0.298 -0.28,0.376 z m -0.278,0.445 0.432,0.251 0.269,-0.43 -0.423,-0.266 -0.27,0.43 z m -0.266,0.496 0.447,0.223 0.259,-0.483 -0.44,-0.236 -0.26,0.483 z m -0.254,0.55 0.459,0.198 0.249,-0.537 -0.454,-0.211 -0.249,0.538 z m -0.243,0.601 0.468,0.177 0.239,-0.592 -0.464,-0.186 -0.239,0.591 z m -0.231,0.654 0.474,0.158 0.229,-0.645 -0.472,-0.167 -0.228,0.646 z m -0.293,0.939 0.477,0.149 0.293,-0.939 -0.477,-0.149 -0.293,0.939"
             style="fill:#383933;fill-opacity:1;fill-rule:nonzero;stroke:none"
             id="path2019"
             inkscape:connector-curvature="0" /><path
             d="m 442.3369,222.5113 -6.242,4.183 2.06,2.059 4.182,-6.242"
             style="fill:#383933;fill-opacity:1;fill-rule:evenodd;stroke:none"
             id="path2021"
             inkscape:connector-curvature="0" /><g
             id="g2023"
             transform="translate(373.6999,160.1233)"><path
               d="m 68.63699,62.388 -6.242,4.18301 2.06,2.05899 z"
               style="fill:none;stroke:#383933;stroke-width:0.03;stroke-linecap:butt;stroke-linejoin:miter;stroke-miterlimit:11.5;stroke-dasharray:none;stroke-opacity:1"
               id="path2025"
               inkscape:connector-curvature="0" /></g><path
             d="m 436.6049,249.9273 v 0 c 0,-2.385 -1.935,-4.32 -4.32,-4.32 -2.384,0 -4.32,1.935 -4.32,4.32 0,2.384 1.936,4.319 4.32,4.319 2.385,0 4.32,-1.935 4.32,-4.319"
             style="fill:#ffffff;fill-opacity:1;fill-rule:evenodd;stroke:none"
             id="path2027"
             inkscape:connector-curvature="0" /><g
             id="g2029"
             transform="translate(373.6999,160.1233)"><path
               d="m 62.905,89.804 v 0 c 0,-2.38499 -1.935,-4.31999 -4.32001,-4.31999 -2.38397,0 -4.31998,1.935 -4.31998,4.31999 0,2.384 1.93601,4.319 4.31998,4.319 2.38501,0 4.32001,-1.935 4.32001,-4.319 z"
               style="fill:none;stroke:#383933;stroke-width:1;stroke-linecap:butt;stroke-linejoin:round;stroke-miterlimit:14.30000019;stroke-dasharray:none;stroke-opacity:1"
               id="path2031"
               inkscape:connector-curvature="0" /></g><g
             id="g2033"
             transform="translate(373.6999,160.1233)"><path
               d="m 56.185,89.32401 h 5.76001"
               style="fill:none;stroke:#383933;stroke-width:1;stroke-linecap:square;stroke-linejoin:bevel;stroke-miterlimit:14.30000019;stroke-dasharray:none;stroke-opacity:1"
               id="path2035"
               inkscape:connector-curvature="0" /></g><g
             id="g2037"
             transform="translate(373.6999,160.1233)"><text
               transform="matrix(1,0,0,-1,23.5396,115.6151)"
               style="font-variant:normal;font-weight:normal;font-size:12px;font-family:Helvetica;-inkscape-font-specification:Helvetica;writing-mode:lr-tb;fill:#383933;fill-opacity:1;fill-rule:nonzero;stroke:none"
               id="text2041"><tspan
                 x="0"
                 y="0"
                 id="tspan2039">A</tspan></text>
</g><g
             id="g2043"
             transform="translate(373.6999,160.1233)"><text
               transform="matrix(1,0,0,-1,23.5396,58.9739)"
               style="font-variant:normal;font-weight:normal;font-size:12px;font-family:Helvetica;-inkscape-font-specification:Helvetica;writing-mode:lr-tb;fill:#383933;fill-opacity:1;fill-rule:nonzero;stroke:none"
               id="text2047"><tspan
                 x="0"
                 y="0"
                 id="tspan2045">K</tspan></text>
</g></g></g></g></g></svg>