<?xml version="1.0" encoding="UTF-8" standalone="no"?>
<!-- Created with Inkscape (http://www.inkscape.org/) -->

<svg
   xmlns:dc="http://purl.org/dc/elements/1.1/"
   xmlns:cc="http://creativecommons.org/ns#"
   xmlns:rdf="http://www.w3.org/1999/02/22-rdf-syntax-ns#"
   xmlns:svg="http://www.w3.org/2000/svg"
   xmlns="http://www.w3.org/2000/svg"
   xmlns:sodipodi="http://sodipodi.sourceforge.net/DTD/sodipodi-0.dtd"
   xmlns:inkscape="http://www.inkscape.org/namespaces/inkscape"
   width="41.430222mm"
   height="35.514904mm"
   viewBox="0 0 41.430222 35.514904"
   version="1.1"
   id="svg2407"
   inkscape:version="0.92.3 (2405546, 2018-03-11)"
   sodipodi:docname="line-grid.svg">
  <defs
     id="defs2401">
    <clipPath
       clipPathUnits="userSpaceOnUse"
       id="clipPath1509">
      <path
         d="m 88,595.44 h 118 v 109 H 88 Z"
         id="path1507"
         inkscape:connector-curvature="0" />
    </clipPath>
    <clipPath
       clipPathUnits="userSpaceOnUse"
       id="clipPath1497">
      <path
         d="M 88.06,596.312 H 205.5 V 704.44 H 88.06 Z"
         id="path1495"
         inkscape:connector-curvature="0" />
    </clipPath>
    <clipPath
       clipPathUnits="userSpaceOnUse"
       id="clipPath1469">
      <path
         d="m 88,595.44 h 118 v 109 H 88 Z"
         id="path1467"
         inkscape:connector-curvature="0" />
    </clipPath>
    <clipPath
       clipPathUnits="userSpaceOnUse"
       id="clipPath1449">
      <path
         d="M 88.06,596.312 H 205.5 V 704.44 H 88.06 Z"
         id="path1447"
         inkscape:connector-curvature="0" />
    </clipPath>
    <clipPath
       clipPathUnits="userSpaceOnUse"
       id="clipPath1415">
      <path
         d="m 88,595.44 h 118 v 109 H 88 Z"
         id="path1413"
         inkscape:connector-curvature="0" />
    </clipPath>
  </defs>
  <sodipodi:namedview
     id="base"
     pagecolor="#ffffff"
     bordercolor="#666666"
     borderopacity="1.0"
     inkscape:pageopacity="0.0"
     inkscape:pageshadow="2"
     inkscape:zoom="1.979899"
     inkscape:cx="28.736836"
     inkscape:cy="93.195105"
     inkscape:document-units="mm"
     inkscape:current-layer="layer1"
     showgrid="false"
     inkscape:window-width="1920"
     inkscape:window-height="1017"
     inkscape:window-x="-8"
     inkscape:window-y="-8"
     inkscape:window-maximized="1"
     fit-margin-top="0"
     fit-margin-left="0"
     fit-margin-right="0"
     fit-margin-bottom="0" />
  <metadata
     id="metadata2404">
    <rdf:RDF>
      <cc:Work
         rdf:about="">
        <dc:format>image/svg+xml</dc:format>
        <dc:type
           rdf:resource="http://purl.org/dc/dcmitype/StillImage" />
        <dc:title></dc:title>
      </cc:Work>
    </rdf:RDF>
  </metadata>
  <g
     inkscape:label="Ebene 1"
     inkscape:groupmode="layer"
     id="layer1"
     transform="translate(-89.653937,-122.76041)">
    <g
       transform="matrix(0.35277777,0,0,-0.35277777,58.588327,371.27113)"
       id="g1409">
      <g
         id="g1411"
         clip-path="url(#clipPath1415)">
        <path
           d="m 115.13,609.5577 h 3.84 v 74.50366 h -3.84 z"
           style="fill:#888888;fill-opacity:1;fill-rule:nonzero;stroke:none"
           id="path1417"
           inkscape:connector-curvature="0" />
        <g
           id="g1419"
           transform="matrix(1,0,0,0.872,88,595.44)">
          <path
             d="m 27.13,16.19003 h 3.840004 v 85.43999 H 27.13 Z"
             style="fill:none;stroke:#000000;stroke-width:0.75;stroke-linecap:square;stroke-linejoin:miter;stroke-miterlimit:14.39999962;stroke-dasharray:none;stroke-opacity:1"
             id="path1421"
             inkscape:connector-curvature="0" />
        </g>
        <path
           d="m 115.13,654.1797 h 3.84 v 2.47211 h -3.84 z"
           style="fill:#ffffff;fill-opacity:1;fill-rule:nonzero;stroke:none"
           id="path1423"
           inkscape:connector-curvature="0" />
        <g
           id="g1425"
           transform="matrix(1,0,0,0.872,88,595.44)">
          <path
             d="m 27.13,67.36206 h 3.840004 v 2.834985 H 27.13 Z"
             style="fill:none;stroke:#000000;stroke-width:0.75;stroke-linecap:square;stroke-linejoin:miter;stroke-miterlimit:14.39999962;stroke-dasharray:none;stroke-opacity:1"
             id="path1427"
             inkscape:connector-curvature="0" />
        </g>
        <path
           d="m 115.13,635.7813 h 3.84 v 2.47217 h -3.84 z"
           style="fill:#ffffff;fill-opacity:1;fill-rule:nonzero;stroke:none"
           id="path1429"
           inkscape:connector-curvature="0" />
        <g
           id="g1431"
           transform="matrix(1,0,0,0.872,88,595.44)">
          <path
             d="m 27.13,46.263 h 3.840004 v 2.835055 H 27.13 Z"
             style="fill:none;stroke:#000000;stroke-width:0.75;stroke-linecap:square;stroke-linejoin:miter;stroke-miterlimit:14.39999962;stroke-dasharray:none;stroke-opacity:1"
             id="path1433"
             inkscape:connector-curvature="0" />
        </g>
        <path
           d="m 115.13,616.9287 h 3.84 v 2.47211 h -3.84 z"
           style="fill:#ffffff;fill-opacity:1;fill-rule:nonzero;stroke:none"
           id="path1435"
           inkscape:connector-curvature="0" />
        <g
           id="g1437"
           transform="matrix(1,0,0,0.872,88,595.44)">
          <path
             d="m 27.13,24.64305 h 3.840004 v 2.834985 H 27.13 Z"
             style="fill:none;stroke:#000000;stroke-width:0.75;stroke-linecap:square;stroke-linejoin:miter;stroke-miterlimit:14.39999962;stroke-dasharray:none;stroke-opacity:1"
             id="path1439"
             inkscape:connector-curvature="0" />
        </g>
        <path
           d="m 115.13,673.0332 h 3.84 v 2.47211 h -3.84 z"
           style="fill:#ffffff;fill-opacity:1;fill-rule:nonzero;stroke:none"
           id="path1441"
           inkscape:connector-curvature="0" />
      </g>
    </g>
    <g
       transform="matrix(0.35277777,0,0,-0.35277777,58.588327,371.27113)"
       id="g1443">
      <g
         id="g1445"
         clip-path="url(#clipPath1449)">
        <g
           id="g1451"
           transform="matrix(1,0,0,0.872,88,595.44)">
          <path
             d="m 27.13,88.98307 h 3.840004 v 2.834985 H 27.13 Z"
             style="fill:none;stroke:#000000;stroke-width:0.75;stroke-linecap:square;stroke-linejoin:miter;stroke-miterlimit:14.39999962;stroke-dasharray:none;stroke-opacity:1"
             id="path1453"
             inkscape:connector-curvature="0" />
        </g>
        <g
           id="g1455"
           transform="matrix(1,0,0,0.872,88,595.44)">
          <path
             d="M 0.25,100.67 V 18.11005 M 7.93,100.67 V 18.11005 M 15.61,100.67 V 18.11005 M 23.29,100.67 V 18.11005"
             style="fill:none;stroke:#000000;stroke-width:0.5;stroke-linecap:square;stroke-linejoin:bevel;stroke-miterlimit:14.39999962;stroke-dasharray:none;stroke-opacity:1"
             id="path1457"
             inkscape:connector-curvature="0" />
        </g>
        <g
           id="g1459"
           transform="matrix(1,0,0,0.872,88,595.44)">
          <path
             d="M 30.97,90.11005 91.45,116.99 M 30.97,68.99007 100.09,98.75002 m -69.12,-50.88001 76.8,32.64002 m -76.8,-53.76001 85.44,35.52001"
             style="fill:none;stroke:#000000;stroke-width:0.375;stroke-linecap:square;stroke-linejoin:bevel;stroke-miterlimit:14.39999962;stroke-dasharray:none;stroke-opacity:1"
             id="path1461"
             inkscape:connector-curvature="0" />
        </g>
      </g>
    </g>
    <g
       transform="matrix(0.35277777,0,0,-0.35277777,58.588327,371.27113)"
       id="g1463">
      <g
         id="g1465"
         clip-path="url(#clipPath1469)">
        <g
           id="g1471"
           transform="matrix(1,0,0,0.872,88,595.44)">
          <path
             d="M 30.97,90.11005 60.73,20.03007 M 32.099,46.99606 c 0,0 0.142,0.77994 0.43201,2.37596 0.28999,1.59699 0.85699,2.04503 1.72799,1.36804 0.871,-0.67698 1.603,-1.52805 2.232,-2.59203 0.629,-1.06399 1.338,-1.58398 2.16,-1.58398 0.82201,0 1.2,0.73795 1.152,2.24997 -0.048,1.51202 -0.072,2.25004 -0.072,2.25004 0,0 0.059,0.61995 0.18,1.89 0.121,1.26997 0.74101,1.53595 1.88999,0.80997 1.14901,-0.725 1.96401,-1.61099 2.48401,-2.69997 0.51999,-1.08799 1.176,-1.62002 1.998,-1.62002 0.82201,0 0.94001,1.32297 0.36001,4.03197 M 31.955,68.45202 c 0,0 0.142,0.78001 0.432,2.37603 0.29,1.59699 0.857,2.04496 1.72801,1.36797 0.87099,-0.67698 1.60299,-1.52798 2.23199,-2.59196 0.629,-1.06399 1.338,-1.58405 2.16,-1.58405 0.822,0 1.17701,1.276 1.08001,3.88806 M 32.099,25.43203 c 0,0 0.142,0.78002 0.43201,2.37603 0.28999,1.59699 0.85699,2.04496 1.72799,1.36797 0.871,-0.67699 1.603,-1.52798 2.232,-2.59196 0.629,-1.06406 1.338,-1.58405 2.16,-1.58405 0.82201,0 1.14101,0.61399 0.972,1.872 -0.169,1.25801 -0.282,1.90203 -0.34199,1.96202 -0.06001,0.06096 0.028,0.85799 0.26999,2.42999 0.242,1.57201 0.89801,1.89098 1.99801,0.97202 1.10098,-0.91903 1.94499,-1.88803 2.57399,-2.95202 0.629,-1.06398 1.302,-1.55996 2.052,-1.51202 0.75,0.049 1.05699,0.73403 0.93601,2.08801 -0.12102,1.35502 -0.18001,2.01605 -0.18001,2.01605 0,0 0.089,0.78596 0.27,2.39395 0.181,1.60903 0.74801,2.05699 1.728,1.36804 0.98,-0.68903 1.765,-1.54604 2.394,-2.61003 0.629,-1.06398 1.33801,-1.58397 2.16,-1.58397 0.82201,0 1.177,1.276 1.08,3.88798"
             style="fill:none;stroke:#000000;stroke-width:1;stroke-linecap:square;stroke-linejoin:bevel;stroke-miterlimit:14.39999962;stroke-dasharray:none;stroke-opacity:1"
             id="path1473"
             inkscape:connector-curvature="0" />
        </g>
        <g
           id="g1475"
           transform="matrix(1,0,0,0.872,88,595.44)">
          <path
             d="M 89.53,35.39007 55.92999,110.2701 M 96.25,39.23003 62.64999,115.0701"
             style="fill:none;stroke:#000000;stroke-width:0.5;stroke-linecap:square;stroke-linejoin:bevel;stroke-miterlimit:14.39999962;stroke-dasharray:none;stroke-opacity:1"
             id="path1477"
             inkscape:connector-curvature="0" />
        </g>
        <g
           id="g1479"
           transform="matrix(1,0,0,0.872,88,595.44)">
          <path
             d="m 36.297,77.96202 c 3.05,1.43503 6.839,0.29804 8.393,-2.517 0.155,-0.28096 0.269,-0.53399 0.375,-0.83496"
             style="fill:none;stroke:#000000;stroke-width:1;stroke-linecap:butt;stroke-linejoin:round;stroke-miterlimit:14.39999962;stroke-dasharray:none;stroke-opacity:1"
             id="path1481"
             inkscape:connector-curvature="0" />
        </g>
        <path
           d="m 145.362,614.7949 0.133,-0.3061 -2.301,-0.7612 -0.133,0.3052 z m -2.183,-1.0717 v 0 l -3.121,-0.7822 -0.103,0.3139 3.121,0.7823 0.118,-0.3096 -0.015,-0.004 z m -3.133,-0.7848 v 0 l -3.472,-0.6548 -0.079,0.32 3.472,0.654 0.091,-0.3166 -0.012,-0.003 z m -3.483,-0.6566 v 0 l -3.783,-0.5206 -0.058,0.3235 3.783,0.5206 0.069,-0.3217 -0.011,-0.002 z m -3.792,-0.5214 v 0 l -4.055,-0.3794 -0.04,0.3253 4.055,0.3793 0.049,-0.3244 z m -4.064,-0.3802 v 0 l -4.286,-0.232 -0.024,0.3262 4.287,0.2319 0.032,-0.3253 z m -4.294,-0.2329 v 0 l -4.479,-0.0785 -0.008,0.3271 4.479,0.0785 0.016,-0.3262 -0.008,-9e-4"
           style="fill:#000000;fill-opacity:1;fill-rule:nonzero;stroke:none"
           id="path1483"
           inkscape:connector-curvature="0" />
        <path
           d="m 142.606,614.6231 5.551,1.1798 -3.839,-3.6902 -1.712,2.5104"
           style="fill:#000000;fill-opacity:1;fill-rule:evenodd;stroke:none"
           id="path1485"
           inkscape:connector-curvature="0" />
        <g
           id="g1487"
           transform="matrix(1,0,0,0.872,88,595.44)">
          <path
             d="m 30.97,47.87001 h 38.4 M 56.961,59.22304 c 1.27701,-3.78502 1.849,-7.29797 1.849,-11.35303"
             style="fill:none;stroke:#000000;stroke-width:0.25;stroke-linecap:butt;stroke-linejoin:miter;stroke-miterlimit:11.5;stroke-dasharray:none;stroke-opacity:1"
             id="path1489"
             inkscape:connector-curvature="0" />
        </g>
      </g>
    </g>
    <g
       transform="matrix(0.35277777,0,0,-0.35277777,58.588327,371.27113)"
       id="g1491">
      <g
         id="g1493"
         clip-path="url(#clipPath1497)">
        <g
           id="g1499"
           transform="matrix(1,0,0,0.872,88,595.44)">
          <path
             d="M 102.97,42.11002 69.37,117.9501 M 110.65,44.99002 77.04999,120.8301 M 117.37,48.83005 83.76999,124.67"
             style="fill:none;stroke:#000000;stroke-width:0.5;stroke-linecap:square;stroke-linejoin:bevel;stroke-miterlimit:11.5;stroke-dasharray:none;stroke-opacity:1"
             id="path1501"
             inkscape:connector-curvature="0" />
        </g>
      </g>
    </g>
    <g
       transform="matrix(0.35277777,0,0,-0.35277777,58.588327,371.27113)"
       id="g1503">
      <g
         id="g1505"
         clip-path="url(#clipPath1509)">
        <g
           id="g1511"
           transform="matrix(1,0,0,0.872,88,595.44)">
          <text
             transform="matrix(1,0,0,-1,43.45,9.550099)"
             style="font-variant:normal;font-weight:normal;font-size:12px;font-family:Symbol;-inkscape-font-specification:Symbol;writing-mode:lr-tb;fill:#000000;fill-opacity:1;fill-rule:nonzero;stroke:none"
             id="text1515">
            <tspan
               x="0"
               y="0"
               id="tspan1513"> </tspan>
          </text>
        </g>
        <g
           id="g1517"
           transform="matrix(1,0,0,0.872,88,595.44)">
          <text
             transform="matrix(1,0,0,-1,60.028,52.9925)"
             style="font-variant:normal;font-weight:normal;font-size:12px;font-family:Symbol;-inkscape-font-specification:Symbol;writing-mode:lr-tb;fill:#000000;fill-opacity:1;fill-rule:nonzero;stroke:none"
             id="text1521">
            <tspan
               x="0"
               y="0"
               id="tspan1519"> </tspan>
          </text>
        </g>
        <path
           d="m 129.53,661.4591 v 0 c 0,-0.4622 -0.43,-0.8371 -0.96,-0.8371 -0.53,0 -0.96,0.3749 -0.96,0.8371 0,0.4622 0.43,0.8372 0.96,0.8372 0.53,0 0.96,-0.375 0.96,-0.8372"
           style="fill:#000000;fill-opacity:1;fill-rule:evenodd;stroke:none"
           id="path1523"
           inkscape:connector-curvature="0" />
      </g>
    </g>
    <text
       xml:space="preserve"
       style="font-style:italic;font-variant:normal;font-weight:normal;font-stretch:normal;font-size:2.11666656px;line-height:1.25;font-family:sans-serif;-inkscape-font-specification:'sans-serif, Italic';font-variant-ligatures:normal;font-variant-caps:normal;font-variant-numeric:normal;font-feature-settings:normal;text-align:start;letter-spacing:0px;word-spacing:0px;writing-mode:lr-tb;text-anchor:start;fill:#000000;fill-opacity:1;stroke:none;stroke-width:0.26458332"
       x="111.23022"
       y="144.88533"
       id="text3221"><tspan
         sodipodi:role="line"
         id="tspan3219"
         x="111.23022"
         y="144.88533"
         style="font-style:italic;font-variant:normal;font-weight:normal;font-stretch:normal;font-size:2.11666656px;font-family:sans-serif;-inkscape-font-specification:'sans-serif, Italic';font-variant-ligatures:normal;font-variant-caps:normal;font-variant-numeric:normal;font-feature-settings:normal;text-align:start;writing-mode:lr-tb;text-anchor:start;stroke-width:0.26458332">φ</tspan></text>
    <text
       xml:space="preserve"
       style="font-style:italic;font-variant:normal;font-weight:normal;font-stretch:normal;font-size:2.11666656px;line-height:1.25;font-family:sans-serif;-inkscape-font-specification:'sans-serif, Italic';font-variant-ligatures:normal;font-variant-caps:normal;font-variant-numeric:normal;font-feature-settings:normal;text-align:start;letter-spacing:0px;word-spacing:0px;writing-mode:lr-tb;text-anchor:start;fill:#000000;fill-opacity:1;stroke:none;stroke-width:0.26458332"
       x="104.63976"
       y="157.78796"
       id="text3221-3"><tspan
         sodipodi:role="line"
         id="tspan3219-5"
         x="104.63976"
         y="157.78796"
         style="font-style:italic;font-variant:normal;font-weight:normal;font-stretch:normal;font-size:2.11666656px;font-family:sans-serif;-inkscape-font-specification:'sans-serif, Italic';font-variant-ligatures:normal;font-variant-caps:normal;font-variant-numeric:normal;font-feature-settings:normal;text-align:start;writing-mode:lr-tb;text-anchor:start;stroke-width:0.26458332">φ</tspan></text>
  </g>
</svg>
